<?xml version="1.0" encoding="utf-8"?>
<!-- Generator: Adobe Illustrator 23.0.1, SVG Export Plug-In . SVG Version: 6.00 Build 0)  -->
<svg version="1.1" id="Layer_1" xmlns="http://www.w3.org/2000/svg" xmlns:xlink="http://www.w3.org/1999/xlink" x="0px" y="0px"
	 viewBox="0 0 138.59 105.51" style="enable-background:new 0 0 138.59 105.51;" xml:space="preserve">
<style type="text/css">
	.st0{fill:#0A3766;}
	.st1{fill:#CBB3FF;}
	.st2{fill:#10406B;}
</style>
<title>X</title>
<g>
	<g>
		<g>
			<path class="st0" d="M36.153,28.94c1.983-4.335,4.7-8.362,7.925-11.856c3.225-3.506,6.931-6.541,10.953-9.049
				c4.022-2.508,8.35-4.519,12.877-5.932c4.525-1.405,9.268-2.204,14.058-2.092c2.392,0.064,4.798,0.378,7.129,1.064
				c2.326,0.681,4.586,1.74,6.535,3.269c0.967,0.758,1.882,1.643,2.641,2.586c0.769,0.924,1.49,1.891,2.137,2.905
				c1.307,2.022,2.363,4.203,3.162,6.469c1.608,4.538,2.16,9.383,1.953,14.138c-0.206,4.765-1.145,9.466-2.621,13.974
				c-1.484,4.508-3.499,8.839-6.038,12.867c-2.538,4.027-5.651,7.756-9.439,10.782c-3.776,3.018-8.298,5.255-13.133,6.162
				c-2.406,0.456-4.885,0.619-7.307,0.468c-2.407-0.096-4.804-0.457-7.168-0.966c-4.727-1.042-9.28-3.002-13.298-5.786
				c-3.992-2.827-7.314-6.592-9.681-10.872c-2.367-4.282-3.715-9.138-3.805-14.026C32.917,38.159,34.072,33.274,36.153,28.94z
				 M38.563,30.048c-1.86,4.071-2.77,8.492-2.573,12.898c0.18,4.4,1.491,8.726,3.702,12.519
				c4.442,7.614,12.234,13.002,20.873,15.048c2.164,0.499,4.37,0.871,6.604,0.993c2.21,0.173,4.404,0.056,6.564-0.317
				c4.321-0.745,8.402-2.672,11.915-5.39c3.519-2.723,6.504-6.172,8.967-9.956c2.467-3.796,4.44-7.929,5.909-12.222
				c1.461-4.296,2.406-8.776,2.651-13.291c0.248-4.507-0.227-9.066-1.678-13.31c-0.721-2.12-1.679-4.156-2.871-6.048
				c-0.589-0.95-1.25-1.855-1.956-2.723c-0.69-0.87-1.441-1.624-2.302-2.296c-3.445-2.689-7.991-3.789-12.459-3.899
				c-4.504-0.127-9.036,0.706-13.358,2.086c-4.329,1.39-8.469,3.374-12.292,5.832C48.62,14.876,42.199,21.773,38.563,30.048z"/>
		</g>
		<path class="st1" d="M85.899,33.422c-6.558,2.029-13.771-2.458-15.8-9.015s0.041-12.582,8.347-15.152
			c6.558-2.029,13.335,1.382,15.364,7.939S94.925,30.63,85.899,33.422z"/>
	</g>
	<g>
		<path class="st2" d="M29.995,99.678c0,0.261-0.148,0.495-0.377,0.62c-1.051,0.571-2.333,0.919-3.753,0.919
			c-3.54,0-5.769-2.41-5.769-5.652c0-3.22,2.229-5.608,5.376-5.608c3.125,0,5.135,2.366,5.135,5.542l0,0.01
			c0,0.478-0.387,0.866-0.864,0.866l-6.998,0c-0.071,0-0.127,0.065-0.115,0.135c0.252,1.425,1.482,2.538,3.41,2.538
			c1.095,0,2.176-0.311,3.254-0.968c0.308-0.188,0.702,0.024,0.702,0.385L29.995,99.678z M28.006,94.492
			c0.069,0,0.125-0.063,0.115-0.132c-0.201-1.376-1.231-2.344-2.693-2.344c-1.455,0-2.585,1.122-2.799,2.342
			c-0.012,0.069,0.044,0.133,0.115,0.133H28.006z"/>
		<path class="st2" d="M2.513,90.679v1.074c0.787-1.096,2.142-1.797,3.628-1.797c2.95,0,5.222,2.432,5.222,5.63
			c0,3.154-2.273,5.63-5.222,5.63c-1.486,0-2.841-0.635-3.628-1.73v4.587c0,0.794-0.642,1.437-1.434,1.437H0.459
			c-0.253,0-0.459-0.206-0.459-0.46V90.679c0-0.254,0.205-0.46,0.459-0.46h1.596C2.308,90.22,2.513,90.425,2.513,90.679z
			 M5.616,92.257c-1.814,0-3.213,1.468-3.213,3.33s1.399,3.33,3.213,3.33c1.814,0,3.212-1.468,3.212-3.33S7.43,92.257,5.616,92.257z
			"/>
		<path class="st2" d="M13.955,100.954h-0.459c-0.294,0-0.533-0.239-0.533-0.534v-5.074c0-2.944,2.381-5.331,5.318-5.331h0.306
			c0.294,0,0.533,0.239,0.533,0.534v1.131c0,0.464-0.376,0.841-0.839,0.841h0c-1.556,0-2.818,1.265-2.818,2.825v4.097
			C15.463,100.277,14.788,100.954,13.955,100.954z"/>
		<path class="st1" d="M38.092,89.957c0.932,0,1.845,0.216,2.627,0.633c0.148,0.079,0.236,0.238,0.236,0.406l0,1.4
			c0,0.344-0.367,0.573-0.667,0.408c-0.629-0.347-1.285-0.525-1.976-0.525c-1.902,0-3.321,1.424-3.321,3.308
			c0,1.862,1.399,3.308,3.321,3.308c0.833,0,1.607-0.301,2.283-0.704c0.179-0.107,0.405,0.02,0.405,0.228l0,1.618
			c0,0.267-0.159,0.506-0.401,0.619c-0.79,0.369-1.651,0.561-2.527,0.561c-3.321,0-5.638-2.366-5.638-5.63
			C32.433,92.389,34.771,89.957,38.092,89.957z"/>
		<path class="st1" d="M53.693,95.587c0,3.154-2.426,5.63-5.703,5.63c-3.278,0-5.703-2.475-5.703-5.63s2.425-5.63,5.703-5.63
			C51.267,89.957,53.693,92.432,53.693,95.587z M44.799,95.587c0,1.84,1.399,3.308,3.191,3.308c1.792,0,3.19-1.468,3.19-3.308
			s-1.399-3.308-3.19-3.308C46.198,92.279,44.799,93.747,44.799,95.587z"/>
		<path class="st1" d="M73.161,89.957c0.92,0,1.821,0.211,2.596,0.616c0.163,0.085,0.267,0.253,0.267,0.438v1.386
			c0,0.346-0.37,0.571-0.672,0.405c-0.628-0.345-1.282-0.522-1.972-0.522c-1.902,0-3.321,1.424-3.321,3.308
			c0,1.862,1.399,3.308,3.321,3.308c0.726,0,1.408-0.229,2.018-0.554c0.304-0.162,0.67,0.061,0.67,0.406l0,1.409
			c0,0.182-0.098,0.353-0.26,0.433c-0.828,0.414-1.739,0.628-2.667,0.628c-3.321,0-5.638-2.366-5.638-5.63
			C67.502,92.389,69.84,89.957,73.161,89.957z"/>
		<path class="st1" d="M87.255,99.813c0,0.164-0.084,0.318-0.226,0.4c-1.078,0.621-2.415,1.003-3.904,1.003
			c-3.54,0-5.769-2.41-5.769-5.652c0-3.22,2.229-5.608,5.375-5.608c3.125,0,5.136,2.366,5.136,5.542
			c0,0.113-0.002,0.212-0.007,0.305c-0.016,0.321-0.283,0.571-0.603,0.571h-7.388c0.197,1.49,1.442,2.673,3.431,2.673
			c1.098,0,2.18-0.312,3.261-0.973c0.304-0.186,0.695,0.032,0.695,0.389V99.813z M85.397,94.492
			c-0.153-1.446-1.202-2.475-2.71-2.475c-1.508,0-2.666,1.205-2.819,2.475H85.397z"/>
		<path class="st1" d="M92.235,90.679v1.074c0.787-1.096,2.142-1.797,3.628-1.797c2.95,0,5.222,2.432,5.222,5.63
			c0,3.154-2.273,5.63-5.222,5.63c-1.486,0-2.841-0.635-3.628-1.73v4.587c0,0.794-0.642,1.437-1.434,1.437h-0.621
			c-0.253,0-0.459-0.206-0.459-0.46V90.679c0-0.254,0.205-0.46,0.459-0.46h1.596C92.03,90.22,92.235,90.425,92.235,90.679z
			 M95.339,92.257c-1.814,0-3.213,1.468-3.213,3.33s1.399,3.33,3.213,3.33c1.814,0,3.212-1.468,3.212-3.33
			S97.152,92.257,95.339,92.257z"/>
		<path class="st1" d="M107.202,98.894c0.197,0,0.41-0.027,0.614-0.082c0.287-0.077,0.565,0.153,0.565,0.451v1.26
			c0,0.195-0.122,0.367-0.304,0.435c-0.4,0.151-0.936,0.258-1.619,0.258c-2.142,0-3.431-1.336-3.431-3.57V85.385
			c0-0.222,0.18-0.402,0.401-0.402h0.772c0.74,0,1.34,0.601,1.34,1.343v3.277h2.522c0.176,0,0.319,0.143,0.319,0.32v1.508
			c0,0.176-0.143,0.32-0.319,0.32h-2.522v5.436C105.541,98.369,106.065,98.894,107.202,98.894z"/>
		<path class="st1" d="M110.72,100.494V90.063c0-0.254,0.205-0.46,0.459-0.46h1.618c0.253,0,0.459,0.206,0.459,0.46v9.453
			c0,0.794-0.642,1.437-1.434,1.437h-0.643C110.925,100.954,110.72,100.748,110.72,100.494z"/>
		<path class="st1" d="M126.648,95.587c0,3.154-2.425,5.63-5.703,5.63c-3.278,0-5.703-2.475-5.703-5.63s2.425-5.63,5.703-5.63
			C124.222,89.957,126.648,92.432,126.648,95.587z M117.754,95.587c0,1.84,1.399,3.308,3.191,3.308c1.792,0,3.19-1.468,3.19-3.308
			s-1.399-3.308-3.19-3.308C119.153,92.279,117.754,93.747,117.754,95.587z"/>
		<path class="st1" d="M64.194,100.954h-0.581c-0.261,0-0.472-0.212-0.472-0.473V94.98c0-1.225-0.855-2.322-2.061-2.518
			c-1.545-0.252-2.885,0.943-2.885,2.446v4.596c0,0.801-0.648,1.45-1.447,1.45h-0.581c-0.261,0-0.472-0.212-0.472-0.473l0-5.468
			c0-2.625,1.983-4.882,4.594-5.077c2.912-0.217,5.351,2.097,5.351,4.971v4.596C65.64,100.304,64.993,100.954,64.194,100.954z"/>
		<path class="st1" d="M137.143,100.954h-0.581c-0.261,0-0.472-0.212-0.472-0.473V94.98c0-1.225-0.855-2.322-2.061-2.518
			c-1.545-0.252-2.885,0.943-2.885,2.446v4.558c0,0.822-0.665,1.489-1.485,1.489h-0.542c-0.261,0-0.472-0.212-0.472-0.473v-5.468
			c0-2.625,1.983-4.882,4.594-5.077c2.912-0.217,5.351,2.097,5.351,4.971v4.596C138.59,100.304,137.942,100.954,137.143,100.954z"/>
		<ellipse class="st1" cx="111.976" cy="86.455" rx="1.557" ry="1.561"/>
	</g>
</g>
</svg>
