<?xml version="1.0" encoding="utf-8"?>
<!-- Generator: Adobe Illustrator 23.0.1, SVG Export Plug-In . SVG Version: 6.00 Build 0)  -->
<svg version="1.1" id="Layer_1" xmlns="http://www.w3.org/2000/svg" xmlns:xlink="http://www.w3.org/1999/xlink" x="0px" y="0px"
	 viewBox="0 0 72.54 74.749" style="enable-background:new 0 0 72.54 74.749;" xml:space="preserve">
<style type="text/css">
	.st0{fill:#333840;}
</style>
<title>X</title>
<g>
	<g>
		<g>
			<path class="st0" d="M3.128,28.939c1.983-4.335,4.7-8.362,7.925-11.856c3.225-3.506,6.931-6.541,10.953-9.049
				s8.35-4.519,12.877-5.932c4.525-1.405,9.268-2.204,14.058-2.092c2.392,0.064,4.798,0.378,7.129,1.064
				c2.326,0.681,4.586,1.74,6.535,3.269c0.967,0.758,1.882,1.643,2.641,2.586c0.769,0.924,1.49,1.891,2.137,2.905
				c1.307,2.022,2.363,4.203,3.162,6.469c1.608,4.538,2.16,9.383,1.953,14.138c-0.206,4.765-1.145,9.466-2.621,13.974
				c-1.484,4.508-3.499,8.839-6.038,12.867c-2.538,4.027-5.651,7.756-9.439,10.782c-3.776,3.018-8.298,5.255-13.133,6.162
				c-2.406,0.456-4.885,0.619-7.307,0.468c-2.407-0.096-4.804-0.457-7.168-0.966c-4.727-1.042-9.28-3.002-13.298-5.786
				C9.502,65.115,6.18,61.35,3.813,57.07c-2.367-4.282-3.715-9.138-3.805-14.026C-0.108,38.158,1.047,33.273,3.128,28.939z
				 M5.538,30.047c-1.86,4.071-2.77,8.492-2.573,12.898c0.18,4.4,1.491,8.726,3.702,12.519c4.442,7.614,12.234,13.002,20.873,15.048
				c2.164,0.499,4.37,0.871,6.604,0.993c2.21,0.173,4.404,0.056,6.564-0.317c4.321-0.745,8.402-2.672,11.915-5.39
				c3.519-2.723,6.504-6.172,8.967-9.956c2.467-3.796,4.44-7.929,5.909-12.222c1.461-4.296,2.406-8.776,2.651-13.291
				c0.248-4.507-0.227-9.066-1.678-13.31c-0.721-2.12-1.679-4.156-2.871-6.048c-0.589-0.95-1.25-1.855-1.956-2.723
				c-0.69-0.87-1.441-1.624-2.302-2.296c-3.445-2.689-7.991-3.789-12.459-3.899c-4.504-0.127-9.036,0.706-13.358,2.086
				c-4.329,1.39-8.469,3.374-12.292,5.832C15.595,14.875,9.174,21.772,5.538,30.047z"/>
		</g>
		<path class="st0" d="M52.874,33.421c-6.558,2.029-13.771-2.458-15.8-9.015s0.041-12.582,8.347-15.152
			c6.558-2.029,13.335,1.382,15.364,7.939S61.9,30.629,52.874,33.421z"/>
	</g>
</g>
</svg>
