<?xml version="1.0" encoding="utf-8"?>
<!-- Generator: Adobe Illustrator 23.0.1, SVG Export Plug-In . SVG Version: 6.00 Build 0)  -->
<svg version="1.1" id="Layer_1" xmlns="http://www.w3.org/2000/svg" xmlns:xlink="http://www.w3.org/1999/xlink" x="0px" y="0px"
	 viewBox="0 0 203.285 30.165" style="enable-background:new 0 0 203.285 30.165;" xml:space="preserve">
<style type="text/css">
	.st0{fill:#10406B;}
</style>
<title>X</title>
<g>
	<g>
		<path class="st0" d="M43.997,21.632c0,0.382-0.217,0.725-0.553,0.907c-1.542,0.836-3.422,1.344-5.506,1.344
			c-5.192,0-8.462-3.526-8.462-8.27c0-4.712,3.27-8.205,7.885-8.205c4.583,0,7.532,3.462,7.532,8.109v0.015
			c0,0.7-0.568,1.267-1.268,1.267H33.36c-0.104,0-0.187,0.095-0.168,0.197c0.37,2.086,2.174,3.713,5.002,3.713
			c1.607,0,3.191-0.455,4.772-1.417c0.451-0.275,1.029,0.035,1.029,0.564L43.997,21.632z M41.079,14.044
			c0.102,0,0.183-0.092,0.169-0.193c-0.295-2.014-1.806-3.429-3.95-3.429c-2.134,0-3.791,1.641-4.106,3.427
			c-0.018,0.102,0.065,0.195,0.168,0.195C33.36,14.044,41.079,14.044,41.079,14.044z"/>
		<path class="st0" d="M3.686,8.465v1.571C4.84,8.433,6.828,7.407,9.007,7.407c4.327,0,7.66,3.558,7.66,8.238
			c0,4.616-3.333,8.238-7.66,8.238c-2.18,0-4.167-0.93-5.321-2.532v6.711c0,1.161-0.941,2.103-2.103,2.103h-0.91
			C0.302,30.165,0,29.864,0,29.492V8.465c0-0.371,0.301-0.673,0.673-0.673h2.341C3.385,7.793,3.686,8.094,3.686,8.465z
			 M8.238,10.774c-2.661,0-4.712,2.147-4.712,4.872s2.051,4.872,4.712,4.872c2.66,0,4.712-2.147,4.712-4.872
			C12.949,12.921,10.898,10.774,8.238,10.774z"/>
		<path class="st0" d="M20.47,23.499h-0.674c-0.431,0-0.781-0.35-0.781-0.781v-7.425c0-4.308,3.492-7.8,7.8-7.8h0.449
			c0.431,0,0.781,0.35,0.781,0.781v1.655c0,0.68-0.551,1.23-1.23,1.23l0,0c-2.283,0-4.133,1.851-4.133,4.133v5.995
			C22.681,22.509,21.691,23.499,20.47,23.499z"/>
		<path class="st0" d="M55.874,7.408c1.367,0,2.707,0.316,3.853,0.926c0.217,0.115,0.346,0.349,0.346,0.595v2.049
			c0,0.503-0.538,0.839-0.979,0.596c-0.923-0.508-1.885-0.768-2.899-0.768c-2.789,0-4.872,2.084-4.872,4.84
			c0,2.725,2.051,4.84,4.872,4.84c1.222,0,2.357-0.441,3.348-1.03c0.263-0.156,0.594,0.029,0.594,0.334v2.368
			c0,0.391-0.233,0.74-0.588,0.906c-1.159,0.54-2.421,0.82-3.707,0.82c-4.872,0-8.27-3.462-8.27-8.238
			C47.573,10.967,51.002,7.408,55.874,7.408z"/>
		<path class="st0" d="M78.758,15.646c0,4.616-3.558,8.238-8.366,8.238s-8.366-3.622-8.366-8.238s3.558-8.238,8.366-8.238
			C75.2,7.408,78.758,11.03,78.758,15.646z M65.712,15.646c0,2.692,2.051,4.84,4.68,4.84c2.628,0,4.679-2.147,4.679-4.84
			s-2.051-4.84-4.679-4.84C67.764,10.806,65.712,12.953,65.712,15.646z"/>
		<path class="st0" d="M107.314,7.408c1.349,0,2.672,0.308,3.807,0.902c0.239,0.125,0.391,0.371,0.391,0.64v2.027
			c0,0.506-0.542,0.836-0.986,0.593c-0.921-0.505-1.88-0.764-2.892-0.764c-2.789,0-4.872,2.084-4.872,4.84
			c0,2.725,2.051,4.84,4.872,4.84c1.066,0,2.065-0.335,2.96-0.811c0.446-0.237,0.982,0.089,0.982,0.594v2.061
			c0,0.266-0.144,0.516-0.382,0.634c-1.215,0.605-2.551,0.92-3.913,0.92c-4.872,0-8.27-3.462-8.27-8.238
			C99.013,10.967,102.442,7.408,107.314,7.408z"/>
		<path class="st0" d="M127.986,21.83c0,0.24-0.123,0.466-0.331,0.585c-1.581,0.909-3.542,1.468-5.727,1.468
			c-5.193,0-8.462-3.526-8.462-8.27c0-4.712,3.269-8.205,7.885-8.205c4.584,0,7.533,3.462,7.533,8.109
			c0,0.165-0.003,0.31-0.01,0.446c-0.023,0.47-0.415,0.836-0.885,0.836h-10.837c0.289,2.18,2.116,3.911,5.032,3.911
			c1.61,0,3.198-0.457,4.783-1.423c0.446-0.272,1.019,0.047,1.019,0.57V21.83z M125.262,14.044
			c-0.224-2.116-1.763-3.622-3.975-3.622s-3.91,1.763-4.135,3.622H125.262z"/>
		<path class="st0" d="M135.292,8.465v1.571c1.154-1.603,3.142-2.629,5.321-2.629c4.327,0,7.66,3.558,7.66,8.238
			c0,4.616-3.333,8.238-7.66,8.238c-2.18,0-4.167-0.93-5.321-2.532v6.711c0,1.161-0.941,2.103-2.103,2.103h-0.91
			c-0.371,0-0.673-0.301-0.673-0.673V8.465c0-0.371,0.301-0.673,0.673-0.673h2.341C134.991,7.793,135.292,8.094,135.292,8.465z
			 M139.844,10.774c-2.661,0-4.712,2.147-4.712,4.872s2.051,4.872,4.712,4.872c2.66,0,4.712-2.147,4.712-4.872
			S142.504,10.774,139.844,10.774z"/>
		<path class="st0" d="M157.246,20.486c0.288,0,0.601-0.04,0.901-0.12c0.421-0.112,0.829,0.224,0.829,0.659v1.844
			c0,0.286-0.179,0.536-0.447,0.637c-0.586,0.221-1.373,0.378-2.374,0.378c-3.142,0-5.032-1.955-5.032-5.224V0.718
			c0-0.325,0.263-0.588,0.588-0.588h1.132c1.085,0,1.965,0.88,1.965,1.965v4.794h3.7c0.258,0,0.468,0.209,0.468,0.468v2.206
			c0,0.258-0.209,0.468-0.468,0.468h-3.7v7.955C154.809,19.716,155.578,20.486,157.246,20.486z"/>
		<path class="st0" d="M162.405,22.826V7.564c0-0.371,0.301-0.673,0.673-0.673h2.373c0.371,0,0.673,0.301,0.673,0.673v13.832
			c0,1.161-0.941,2.103-2.103,2.103h-0.943C162.706,23.499,162.405,23.198,162.405,22.826z"/>
		<path class="st0" d="M185.768,15.646c0,4.616-3.558,8.238-8.365,8.238c-4.808,0-8.366-3.622-8.366-8.238s3.558-8.238,8.366-8.238
			C182.211,7.408,185.768,11.03,185.768,15.646z M172.723,15.646c0,2.692,2.051,4.84,4.68,4.84c2.628,0,4.679-2.147,4.679-4.84
			s-2.051-4.84-4.679-4.84C174.775,10.806,172.723,12.953,172.723,15.646z"/>
		<path class="st0" d="M94.16,23.499h-0.852c-0.382,0-0.692-0.31-0.692-0.692v-8.049c0-1.792-1.254-3.398-3.023-3.685
			c-2.266-0.368-4.232,1.38-4.232,3.579v6.725c0,1.172-0.95,2.122-2.122,2.122h-0.852c-0.382,0-0.692-0.31-0.692-0.692v-8.001
			c0-3.841,2.908-7.143,6.739-7.428c4.271-0.317,7.848,3.068,7.848,7.273v6.725C96.282,22.549,95.332,23.499,94.16,23.499z"/>
		<path class="st0" d="M201.163,23.499h-0.852c-0.382,0-0.692-0.31-0.692-0.692v-8.049c0-1.792-1.254-3.398-3.023-3.685
			c-2.266-0.368-4.232,1.38-4.232,3.579v6.669c0,1.203-0.975,2.178-2.178,2.178h-0.796c-0.382,0-0.692-0.31-0.692-0.692v-8.001
			c0-3.841,2.908-7.143,6.739-7.428c4.271-0.317,7.848,3.068,7.848,7.273v6.725C203.286,22.549,202.335,23.499,201.163,23.499z"/>
		<circle class="st0" cx="164.248" cy="2.284" r="2.284"/>
	</g>
</g>
<title>X</title>
</svg>
