<?xml version="1.0" standalone="no"?>
<!DOCTYPE svg PUBLIC "-//W3C//DTD SVG 20010904//EN"
 "http://www.w3.org/TR/2001/REC-SVG-20010904/DTD/svg10.dtd">
<svg version="1.0" xmlns="http://www.w3.org/2000/svg"
 width="328.000000pt" height="328.000000pt" viewBox="0 0 328.000000 328.000000"
 preserveAspectRatio="xMidYMid meet">
<metadata>
Created by potrace 1.11, written by Peter Selinger 2001-2013
</metadata>
<g transform="translate(0.000000,328.000000) scale(0.100000,-0.100000)"
fill="#000000" stroke="none">
<path d="M1900 3186 c-581 -84 -1169 -449 -1488 -923 -181 -269 -268 -510
-279 -773 -11 -265 47 -496 184 -723 203 -336 538 -562 972 -654 113 -24 147
-27 326 -27 183 0 208 3 296 26 244 66 424 169 608 351 340 333 576 838 632
1348 16 142 6 397 -21 521 -42 201 -121 378 -238 533 -117 156 -258 249 -458
301 -83 22 -127 27 -269 30 -110 2 -204 -2 -265 -10z m410 -90 c112 -17 236
-59 315 -107 122 -73 267 -264 336 -443 131 -340 127 -718 -13 -1144 -164
-500 -488 -914 -843 -1078 -177 -81 -317 -109 -520 -101 -379 14 -714 156
-971 412 -144 143 -235 287 -294 463 -101 303 -75 602 81 914 190 380 505 683
924 889 348 170 693 239 985 195z"/>
<path d="M2105 2829 c-182 -27 -349 -138 -418 -278 -31 -63 -32 -71 -32 -186
0 -91 5 -133 19 -175 54 -160 156 -279 297 -349 166 -81 313 -76 493 17 92 48
159 115 199 199 28 60 32 80 35 175 7 173 -41 327 -133 435 -103 120 -292 187
-460 162z"/>
</g>
</svg>
