<?xml version="1.0" encoding="utf-8"?>
<!-- Generator: Adobe Illustrator 23.0.4, SVG Export Plug-In . SVG Version: 6.00 Build 0)  -->
<svg version="1.1" xmlns="http://www.w3.org/2000/svg" xmlns:xlink="http://www.w3.org/1999/xlink" x="0px" y="0px"
	 viewBox="0 0 60.987 62.85" style="enable-background:new 0 0 60.987 62.85;" xml:space="preserve">
<style type="text/css">
	.st0{fill:#10406B;}
	.st1{fill:#CBB3FF;}
	.st2{fill:none;stroke:#2D373F;stroke-width:0.2469;}
	.st3{fill:#333840;}
	.st4{fill:none;stroke:#333840;stroke-width:0.25;stroke-miterlimit:10;}
	.st5{fill:none;stroke:#9E78F0;stroke-width:0.5;stroke-miterlimit:10;stroke-dasharray:1,1.5;}
	.st6{fill:#9E78F0;}
	.st7{fill:#0A3766;}
	.st8{fill:#B3BCC7;}
	.st9{opacity:0.15;}
	.st10{opacity:0.35;fill:#CBB3FF;}
	.st11{fill:none;stroke:#0A3766;stroke-width:0.5;stroke-miterlimit:10;stroke-dasharray:1,1.5;}
	.st12{fill:none;stroke:#9E78F0;stroke-width:0.5;stroke-miterlimit:10;}
	.st13{fill:none;stroke:#9E78F0;stroke-width:0.5;stroke-miterlimit:10;stroke-dasharray:0.9681,1.4521;}
	.st14{fill:none;stroke:#9E78F0;stroke-width:0.5;stroke-miterlimit:10;stroke-dasharray:0.9676,1.4514;}
	.st15{fill:none;stroke:#9E78F0;stroke-width:0.5;stroke-miterlimit:10;stroke-dasharray:0.9743,1.4614;}
	.st16{fill:none;stroke:#9E78F0;stroke-width:0.5;stroke-miterlimit:10;stroke-dasharray:0.9665,1.4498;}
	.st17{fill:none;stroke:#9E78F0;stroke-width:0.5;stroke-miterlimit:10;stroke-dasharray:1.0354,1.5532;}
	.st18{fill:none;stroke:#9E78F0;stroke-width:0.5;stroke-miterlimit:10;stroke-dasharray:0.9682,1.4522;}
	.st19{opacity:0.35;}
	.st20{fill:none;stroke:#FFFFFF;stroke-width:0.5;stroke-linecap:round;stroke-miterlimit:10;}
	.st21{fill:#02A6CC;}
	.st22{fill:none;stroke:#CBB3FF;stroke-miterlimit:10;}
	.st23{fill:#BAA1F0;}
	.st24{fill:#FFFFFF;}
</style>
<g id="Layer_2">
</g>
<g id="Layer_1">
	<path class="st7" d="M4.044,25.132C2.443,28.635,1.661,32.439,1.83,36.23c0.155,3.787,1.283,7.509,3.185,10.773
		c3.822,6.552,10.527,11.188,17.96,12.948c1.862,0.43,3.76,0.75,5.683,0.854c1.901,0.149,3.789,0.048,5.648-0.273
		c3.718-0.641,7.229-2.299,10.252-4.638c3.027-2.344,5.596-5.311,7.716-8.567c2.123-3.266,3.82-6.823,5.084-10.517
		c1.257-3.697,2.07-7.552,2.281-11.437c0.213-3.878-0.195-7.801-1.444-11.453c-0.62-1.824-1.445-3.576-2.471-5.204
		C55.218,7.9,54.65,7.121,54.043,6.374c-0.593-0.749-1.24-1.398-1.98-1.976c-2.964-2.314-6.876-3.26-10.72-3.355
		c-3.876-0.109-7.775,0.608-11.494,1.795c-3.724,1.196-7.287,2.904-10.577,5.018C12.698,12.076,7.173,18.011,4.044,25.132z"/>
	<g>
		<g>
			<path class="st1" d="M2.629,24.333c1.667-3.645,3.951-7.031,6.663-9.969c2.711-2.948,5.827-5.5,9.209-7.609
				c3.382-2.108,7.021-3.8,10.826-4.988c3.804-1.181,7.792-1.853,11.819-1.759c2.011,0.054,4.034,0.318,5.993,0.895
				c1.956,0.572,3.855,1.463,5.495,2.749c0.813,0.638,1.582,1.381,2.22,2.175c0.646,0.777,1.253,1.59,1.796,2.443
				c1.098,1.7,1.987,3.534,2.658,5.439c1.352,3.816,1.816,7.889,1.642,11.887c-0.173,4.006-0.962,7.959-2.203,11.749
				c-1.247,3.79-2.942,7.432-5.076,10.819c-2.134,3.386-4.751,6.521-7.936,9.066c-3.175,2.537-6.977,4.418-11.042,5.181
				c-2.023,0.383-4.107,0.521-6.143,0.393c-2.023-0.08-4.039-0.384-6.026-0.812c-3.974-0.876-7.802-2.524-11.18-4.865
				c-3.356-2.377-6.149-5.543-8.139-9.141c-1.99-3.6-3.124-7.683-3.199-11.794C-0.092,32.085,0.879,27.977,2.629,24.333z
				 M4.655,25.265c-1.564,3.423-2.329,7.14-2.163,10.845c0.151,3.7,1.254,7.337,3.113,10.526
				c3.734,6.402,10.286,10.932,17.549,12.652c1.819,0.42,3.674,0.733,5.553,0.835c1.858,0.145,3.703,0.047,5.519-0.266
				c3.633-0.627,7.064-2.247,10.018-4.532c2.958-2.29,5.468-5.189,7.539-8.371c2.074-3.191,3.733-6.666,4.968-10.277
				c1.228-3.612,2.022-7.379,2.229-11.175c0.209-3.79-0.191-7.622-1.411-11.191c-0.606-1.783-1.412-3.495-2.414-5.085
				c-0.496-0.799-1.051-1.56-1.644-2.29c-0.58-0.732-1.211-1.366-1.935-1.93c-2.896-2.261-6.718-3.186-10.475-3.279
				c-3.787-0.107-7.597,0.594-11.231,1.754c-3.639,1.169-7.12,2.837-10.334,4.903C13.111,12.508,7.712,18.307,4.655,25.265z"/>
		</g>
		<path class="st24" d="M44.453,28.102c-5.513,1.706-11.578-2.066-13.284-7.58s0.035-10.579,7.018-12.74
			c5.513-1.706,11.211,1.162,12.917,6.675S52.042,25.754,44.453,28.102z"/>
	</g>
</g>
</svg>
