<?xml version="1.0" encoding="utf-8"?>
<!-- Generator: Adobe Illustrator 23.0.1, SVG Export Plug-In . SVG Version: 6.00 Build 0)  -->
<svg version="1.1" id="Layer_1" xmlns="http://www.w3.org/2000/svg" xmlns:xlink="http://www.w3.org/1999/xlink" x="0px" y="0px"
	 viewBox="0 0 277.12 58.91" style="enable-background:new 0 0 277.12 58.91;" xml:space="preserve">
<style type="text/css">
	.st0{fill:#FFFFFF;}
</style>
<title>X</title>
<g>
	<g>
		<g>
			<g>
				<path class="st0" d="M2.466,22.808c1.562-3.416,3.703-6.59,6.245-9.344c2.541-2.763,5.462-5.155,8.632-7.132
					c3.17-1.976,6.581-3.561,10.147-4.675c3.566-1.107,7.303-1.737,11.079-1.649c1.885,0.051,3.781,0.298,5.618,0.839
					c1.833,0.536,3.614,1.372,5.15,2.576c0.762,0.598,1.483,1.295,2.081,2.038c0.606,0.728,1.174,1.49,1.684,2.29
					c1.03,1.593,1.862,3.312,2.492,5.098c1.267,3.577,1.703,7.394,1.539,11.142c-0.162,3.755-0.902,7.46-2.065,11.013
					c-1.169,3.553-2.757,6.966-4.758,10.14c-2,3.173-4.453,6.113-7.438,8.498c-2.976,2.378-6.539,4.141-10.349,4.856
					c-1.896,0.359-3.85,0.488-5.758,0.369c-1.897-0.075-3.786-0.36-5.648-0.762c-3.725-0.821-7.313-2.366-10.479-4.56
					c-3.146-2.228-5.764-5.195-7.629-8.568c-1.865-3.375-2.928-7.202-2.998-11.054C-0.084,30.073,0.826,26.223,2.466,22.808z
					 M4.365,23.681c-1.466,3.208-2.183,6.692-2.028,10.165c0.142,3.468,1.175,6.877,2.917,9.866
					c3.5,6.001,9.641,10.247,16.449,11.859c1.705,0.393,3.444,0.687,5.205,0.782c1.741,0.136,3.471,0.044,5.173-0.25
					c3.405-0.587,6.621-2.106,9.39-4.248c2.773-2.146,5.125-4.864,7.067-7.846c1.944-2.991,3.499-6.249,4.656-9.632
					c1.151-3.386,1.896-6.917,2.089-10.474c0.195-3.552-0.179-7.145-1.322-10.489c-0.568-1.671-1.323-3.275-2.263-4.766
					c-0.464-0.748-0.985-1.462-1.541-2.146c-0.543-0.686-1.135-1.28-1.814-1.809c-2.715-2.119-6.297-2.986-9.819-3.073
					c-3.549-0.1-7.121,0.557-10.527,1.644c-3.411,1.096-6.674,2.659-9.687,4.596C12.291,11.724,7.23,17.159,4.365,23.681z"/>
			</g>
		</g>
		<path class="st0" d="M41.668,26.34c-5.168,1.599-10.852-1.937-12.451-7.105c-1.599-5.168,0.033-9.916,6.578-11.941
			c5.168-1.599,10.509,1.089,12.107,6.257S48.781,24.139,41.668,26.34z"/>
	</g>
	<g>
		<path class="st0" d="M117.83,36.004c0,0.382-0.217,0.725-0.553,0.907c-1.542,0.836-3.422,1.344-5.506,1.344
			c-5.192,0-8.462-3.526-8.462-8.27c0-4.712,3.27-8.205,7.885-8.205c4.583,0,7.532,3.462,7.532,8.109l0,0.015
			c0,0.7-0.568,1.267-1.268,1.267l-10.265,0c-0.104,0-0.187,0.095-0.168,0.197c0.37,2.086,2.174,3.713,5.002,3.713
			c1.607,0,3.191-0.455,4.772-1.417c0.451-0.275,1.029,0.035,1.029,0.564L117.83,36.004z M114.912,28.416
			c0.102,0,0.183-0.092,0.169-0.193c-0.295-2.014-1.806-3.429-3.95-3.429c-2.134,0-3.791,1.641-4.106,3.427
			c-0.018,0.102,0.065,0.195,0.168,0.195H114.912z"/>
		<path class="st0" d="M77.519,22.837v1.571c1.154-1.603,3.142-2.629,5.321-2.629c4.327,0,7.66,3.558,7.66,8.238
			c0,4.616-3.333,8.238-7.66,8.238c-2.18,0-4.167-0.93-5.321-2.532v6.711c0,1.161-0.941,2.103-2.103,2.103h-0.91
			c-0.371,0-0.673-0.301-0.673-0.673V22.837c0-0.371,0.301-0.673,0.673-0.673h2.341C77.218,22.165,77.519,22.466,77.519,22.837z
			 M82.071,25.146c-2.661,0-4.712,2.147-4.712,4.872c0,2.725,2.051,4.872,4.712,4.872c2.66,0,4.712-2.147,4.712-4.872
			C86.782,27.293,84.731,25.146,82.071,25.146z"/>
		<path class="st0" d="M94.303,37.871h-0.674c-0.431,0-0.781-0.35-0.781-0.781v-7.425c0-4.308,3.492-7.8,7.8-7.8h0.449
			c0.431,0,0.781,0.35,0.781,0.781v1.655c0,0.68-0.551,1.23-1.23,1.23l0,0c-2.283,0-4.133,1.851-4.133,4.133v5.995
			C96.514,36.881,95.524,37.871,94.303,37.871z"/>
		<path class="st0" d="M129.707,21.78c1.367,0,2.707,0.316,3.853,0.926c0.217,0.115,0.346,0.349,0.346,0.595l0,2.049
			c0,0.503-0.538,0.839-0.979,0.596c-0.923-0.508-1.885-0.768-2.899-0.768c-2.789,0-4.872,2.084-4.872,4.84
			c0,2.725,2.051,4.84,4.872,4.84c1.222,0,2.357-0.441,3.348-1.03c0.263-0.156,0.594,0.029,0.594,0.334l0,2.368
			c0,0.391-0.233,0.74-0.588,0.906c-1.159,0.54-2.421,0.82-3.707,0.82c-4.872,0-8.27-3.462-8.27-8.238
			C121.406,25.339,124.835,21.78,129.707,21.78z"/>
		<path class="st0" d="M152.591,30.018c0,4.616-3.558,8.238-8.366,8.238c-4.808,0-8.366-3.622-8.366-8.238s3.558-8.238,8.366-8.238
			C149.033,21.78,152.591,25.402,152.591,30.018z M139.545,30.018c0,2.692,2.051,4.84,4.68,4.84c2.628,0,4.679-2.147,4.679-4.84
			s-2.051-4.84-4.679-4.84C141.597,25.178,139.545,27.325,139.545,30.018z"/>
		<path class="st0" d="M181.147,21.78c1.349,0,2.672,0.308,3.807,0.902c0.239,0.125,0.391,0.371,0.391,0.64v2.027
			c0,0.506-0.542,0.836-0.986,0.593c-0.921-0.505-1.88-0.764-2.892-0.764c-2.789,0-4.872,2.084-4.872,4.84
			c0,2.725,2.051,4.84,4.872,4.84c1.066,0,2.065-0.335,2.96-0.811c0.446-0.237,0.982,0.089,0.982,0.594l0,2.061
			c0,0.266-0.144,0.516-0.382,0.634c-1.215,0.605-2.551,0.92-3.913,0.92c-4.872,0-8.27-3.462-8.27-8.238
			C172.846,25.339,176.275,21.78,181.147,21.78z"/>
		<path class="st0" d="M201.819,36.202c0,0.24-0.123,0.466-0.331,0.585c-1.581,0.909-3.542,1.468-5.727,1.468
			c-5.193,0-8.462-3.526-8.462-8.27c0-4.712,3.269-8.205,7.885-8.205c4.584,0,7.533,3.462,7.533,8.109
			c0,0.165-0.003,0.31-0.01,0.446c-0.023,0.47-0.415,0.836-0.885,0.836h-10.837c0.289,2.18,2.116,3.911,5.032,3.911
			c1.61,0,3.198-0.457,4.783-1.423c0.446-0.272,1.019,0.047,1.019,0.57V36.202z M199.095,28.416
			c-0.224-2.116-1.763-3.622-3.975-3.622s-3.91,1.763-4.135,3.622H199.095z"/>
		<path class="st0" d="M209.125,22.837v1.571c1.154-1.603,3.142-2.629,5.321-2.629c4.327,0,7.66,3.558,7.66,8.238
			c0,4.616-3.333,8.238-7.66,8.238c-2.18,0-4.167-0.93-5.321-2.532v6.711c0,1.161-0.941,2.103-2.103,2.103h-0.91
			c-0.371,0-0.673-0.301-0.673-0.673V22.837c0-0.371,0.301-0.673,0.673-0.673h2.341C208.824,22.165,209.125,22.466,209.125,22.837z
			 M213.677,25.146c-2.661,0-4.712,2.147-4.712,4.872c0,2.725,2.051,4.872,4.712,4.872c2.66,0,4.712-2.147,4.712-4.872
			C218.389,27.293,216.337,25.146,213.677,25.146z"/>
		<path class="st0" d="M231.079,34.858c0.288,0,0.601-0.04,0.901-0.12c0.421-0.112,0.829,0.224,0.829,0.659l0,1.844
			c0,0.286-0.179,0.536-0.447,0.637c-0.586,0.221-1.373,0.378-2.374,0.378c-3.142,0-5.032-1.955-5.032-5.224V15.09
			c0-0.325,0.263-0.588,0.588-0.588h1.132c1.085,0,1.965,0.88,1.965,1.965v4.794h3.7c0.258,0,0.468,0.209,0.468,0.468v2.206
			c0,0.258-0.209,0.468-0.468,0.468h-3.7v7.955C228.642,34.088,229.411,34.858,231.079,34.858z"/>
		<path class="st0" d="M236.238,37.198V21.936c0-0.371,0.301-0.673,0.673-0.673h2.373c0.371,0,0.673,0.301,0.673,0.673v13.832
			c0,1.161-0.941,2.103-2.103,2.103h-0.943C236.539,37.871,236.238,37.57,236.238,37.198z"/>
		<path class="st0" d="M259.601,30.018c0,4.616-3.558,8.238-8.365,8.238c-4.808,0-8.366-3.622-8.366-8.238s3.558-8.238,8.366-8.238
			C256.044,21.78,259.601,25.402,259.601,30.018z M246.556,30.018c0,2.692,2.051,4.84,4.68,4.84c2.628,0,4.679-2.147,4.679-4.84
			s-2.051-4.84-4.679-4.84C248.608,25.178,246.556,27.325,246.556,30.018z"/>
		<path class="st0" d="M167.993,37.871h-0.852c-0.382,0-0.692-0.31-0.692-0.692V29.13c0-1.792-1.254-3.398-3.023-3.685
			c-2.266-0.368-4.232,1.38-4.232,3.579v6.725c0,1.172-0.95,2.122-2.122,2.122h-0.852c-0.382,0-0.692-0.31-0.692-0.692v-8.001
			c0-3.841,2.908-7.143,6.739-7.428c4.271-0.317,7.848,3.068,7.848,7.273v6.725C170.115,36.921,169.165,37.871,167.993,37.871z"/>
		<path class="st0" d="M274.996,37.871h-0.852c-0.382,0-0.692-0.31-0.692-0.692V29.13c0-1.792-1.254-3.398-3.023-3.685
			c-2.266-0.368-4.232,1.38-4.232,3.579v6.669c0,1.203-0.975,2.178-2.178,2.178h-0.796c-0.382,0-0.692-0.31-0.692-0.692v-8.001
			c0-3.841,2.908-7.143,6.739-7.428c4.271-0.317,7.848,3.068,7.848,7.273v6.725C277.119,36.921,276.168,37.871,274.996,37.871z"/>
		<circle class="st0" cx="238.081" cy="16.656" r="2.284"/>
	</g>
</g>
<title>X</title>
</svg>
