<?xml version="1.0" encoding="utf-8"?>
<!-- Generator: Adobe Illustrator 23.0.1, SVG Export Plug-In . SVG Version: 6.00 Build 0)  -->
<svg version="1.1" xmlns="http://www.w3.org/2000/svg" xmlns:xlink="http://www.w3.org/1999/xlink" x="0px" y="0px"
	 viewBox="0 0 136 164" style="enable-background:new 0 0 136 164;" xml:space="preserve">
<style type="text/css">
	.st0{opacity:0.2;fill:#FFFFFF;}
	.st1{opacity:0.06;}
	.st2{fill:url(#SVGID_1_);}
	.st3{opacity:0.06;enable-background:new    ;}
	.st4{fill:url(#SVGID_2_);}
	.st5{fill:url(#SVGID_3_);}
	.st6{fill:url(#SVGID_4_);}
	.st7{fill:#C4B2D7;}
	.st8{opacity:0.75;}
	.st9{fill:#FFFFFF;}
	.st10{fill:none;stroke:#193966;stroke-width:2.1884;stroke-miterlimit:10;}
	.st11{fill:#00A6CC;}
	.st12{fill:none;stroke:#193966;stroke-width:2.0923;stroke-miterlimit:10;}
	.st13{fill:none;stroke:#193966;stroke-width:1.313;stroke-linejoin:round;stroke-miterlimit:10;}
	.st14{opacity:0.25;fill:#B4BCC7;}
	.st15{fill:none;stroke:#193966;stroke-width:2;stroke-miterlimit:10;}
	.st16{fill:none;stroke:#C4B2D7;stroke-width:4;stroke-linecap:round;stroke-miterlimit:10;}
	.st17{fill:#193966;}
	.st18{fill:#B4BCC7;}
	.st19{fill:#333941;}
	.st20{fill:#010101;}
	.st21{clip-path:url(#SVGID_6_);}
	.st22{fill:none;stroke:#010101;stroke-width:1.5;stroke-miterlimit:10;}
	.st23{clip-path:url(#SVGID_8_);}
	.st24{fill:none;stroke:#010101;stroke-width:0.904;stroke-linejoin:round;stroke-miterlimit:10;}
	.st25{fill:none;stroke:#193966;stroke-width:1.1951;stroke-miterlimit:10;}
	.st26{clip-path:url(#SVGID_10_);}
	.st27{fill:#2C3E50;}
	.st28{fill:#5D6E7E;}
	.st29{fill:#2E3F50;}
	.st30{fill:#7E8D8C;}
	.st31{fill:#20414B;}
	.st32{fill:#2D5A67;}
	.st33{clip-path:url(#SVGID_12_);}
	.st34{fill:#C4B2D7;stroke:#010101;stroke-width:1.5;stroke-miterlimit:10;}
	.st35{fill:#00A6CC;stroke:#010101;stroke-width:1.5;stroke-miterlimit:10;}
	.st36{fill:#FFFFFF;stroke:#010101;stroke-width:1.5;stroke-miterlimit:10;}
	.st37{clip-path:url(#SVGID_12_);fill:#C4B2D7;}
	.st38{clip-path:url(#SVGID_12_);fill:#FFFFFF;stroke:#010101;stroke-width:1.5;stroke-miterlimit:10;}
	.st39{fill:none;stroke:#010101;stroke-width:0.9317;stroke-miterlimit:10;}
	.st40{fill:#FBD764;}
	.st41{fill:#FFFFFF;stroke:#010101;stroke-width:0.9317;stroke-miterlimit:10;}
	.st42{fill:#FBD764;stroke:#010101;stroke-width:0.9507;stroke-miterlimit:10;}
	.st43{fill:#FFFFFF;stroke:#010101;stroke-width:0.9507;stroke-miterlimit:10;}
	.st44{fill:none;stroke:#010101;stroke-width:0.9507;stroke-miterlimit:10;}
	.st45{fill:none;stroke:#010101;stroke-width:0.6903;stroke-miterlimit:10;}
	.st46{fill:#BFE3DA;stroke:#010101;stroke-width:0.6903;stroke-miterlimit:10;}
	.st47{fill:#FFFFFF;stroke:#010101;stroke-width:0.6903;stroke-miterlimit:10;}
	.st48{clip-path:url(#SVGID_14_);fill:#FFFFFF;stroke:#010101;stroke-width:0.9295;stroke-miterlimit:10;}
	.st49{fill:none;stroke:#010101;stroke-width:0.9295;stroke-miterlimit:10;}
	.st50{fill:#FFFFFF;stroke:#010101;stroke-width:0.9295;stroke-miterlimit:10;}
	.st51{fill:none;}
	.st52{fill:none;stroke:#C4B2D7;stroke-width:2;stroke-miterlimit:10;}
	.st53{fill:#FFFFFF;stroke:#193966;stroke-miterlimit:10;}
	.st54{fill:#FFFFFF;stroke:#C4B2D7;stroke-miterlimit:10;}
	.st55{fill:#FFFFFF;stroke:#010101;stroke-miterlimit:10;}
	.st56{fill:none;stroke:#010101;stroke-miterlimit:10;}
	.st57{fill:none;stroke:#193966;stroke-miterlimit:10;}
	.st58{opacity:0.2;}
	.st59{opacity:0.1;}
	.st60{fill:none;stroke:#00A6CC;stroke-width:4;stroke-linecap:round;stroke-miterlimit:10;}
	.st61{fill:none;stroke:#193966;stroke-width:4;stroke-miterlimit:10;}
	.st62{fill:none;stroke:#00A6CC;stroke-width:4;stroke-miterlimit:10;}
	.st63{fill:none;stroke:#193966;stroke-width:1.803;stroke-miterlimit:10;}
	.st64{fill:none;stroke:#C4B2D7;stroke-width:2.5832;stroke-miterlimit:10;}
	.st65{fill:none;stroke:#C4B2D7;stroke-width:2.5832;stroke-linecap:round;stroke-miterlimit:10;}
	.st66{fill:none;stroke:#C4B2D7;stroke-width:2.4952;stroke-linecap:round;stroke-miterlimit:10;}
	.st67{fill:none;stroke:#193966;stroke-width:2.2599;stroke-linecap:round;stroke-miterlimit:10;}
	.st68{fill:none;stroke:#C4B2D7;stroke-width:2.5;stroke-linecap:round;stroke-miterlimit:10;}
	.st69{fill:none;stroke:#193966;stroke-width:2.4952;stroke-linecap:round;stroke-miterlimit:10;}
	.st70{fill:none;stroke:#193966;stroke-width:2.4952;stroke-miterlimit:10;}
	.st71{fill:none;stroke:#C4B2D7;stroke-width:2.4952;stroke-miterlimit:10;}
	.st72{fill:none;stroke:#B4BCC7;stroke-width:3;stroke-linecap:round;stroke-miterlimit:10;}
	.st73{fill:none;stroke:#B4BCC7;stroke-width:3;stroke-linecap:round;stroke-miterlimit:10;stroke-dasharray:0,6.0974;}
	.st74{fill:none;stroke:#B4BCC7;stroke-width:3;stroke-linecap:round;stroke-miterlimit:10;stroke-dasharray:0,5.8282;}
	.st75{fill:none;stroke:#B4BCC7;stroke-width:3;stroke-linecap:round;stroke-miterlimit:10;stroke-dasharray:0,5.0487;}
	.st76{fill:none;stroke:#193966;stroke-width:2.4952;stroke-linecap:round;stroke-miterlimit:10;stroke-dasharray:0,5;}
	.st77{fill:none;stroke:#C4B2D7;stroke-width:2.4952;stroke-linecap:round;stroke-miterlimit:10;stroke-dasharray:0,5;}
	.st78{fill:none;stroke:#B4BCC7;stroke-width:3.3528;stroke-linecap:round;stroke-miterlimit:10;}
	.st79{fill:none;stroke:#B4BCC7;stroke-width:3.3528;stroke-linecap:round;stroke-miterlimit:10;stroke-dasharray:0,5.8626;}
	.st80{fill:none;stroke:#B4BCC7;stroke-width:3.3528;stroke-linecap:round;stroke-miterlimit:10;stroke-dasharray:0,6.8157;}
	.st81{fill:none;stroke:#C4B2D7;stroke-width:3.3528;stroke-linecap:round;stroke-miterlimit:10;}
	.st82{fill:none;stroke:#193966;stroke-width:3;stroke-miterlimit:10;}
	.st83{fill:none;stroke:#B4BCC7;stroke-width:3.3528;stroke-linecap:round;stroke-miterlimit:10;stroke-dasharray:0,6.138;}
	.st84{fill:none;stroke:#B4BCC7;stroke-width:3.3528;stroke-linecap:round;stroke-miterlimit:10;stroke-dasharray:0,6.5136;}
	.st85{fill:none;stroke:#B4BCC7;stroke-width:3.3528;stroke-linecap:round;stroke-miterlimit:10;stroke-dasharray:0,7.4201;}
	.st86{fill:none;stroke:#C4B2D7;stroke-width:2.626;stroke-miterlimit:10;}
	.st87{fill:none;stroke:#C4B2D7;stroke-width:2.626;stroke-linejoin:bevel;stroke-miterlimit:10;}
	.st88{fill:none;stroke:#FFFFFF;stroke-width:2.626;stroke-linecap:round;stroke-linejoin:round;stroke-miterlimit:10;}
	.st89{fill:none;stroke:#FFFFFF;stroke-width:2.626;stroke-linejoin:bevel;stroke-miterlimit:10;}
	.st90{fill:none;stroke:#FFFFFF;stroke-width:2.626;stroke-miterlimit:10;}
	.st91{clip-path:url(#SVGID_16_);}
	.st92{opacity:0.08;clip-path:url(#SVGID_18_);}
	.st93{fill:url(#SVGID_19_);}
	.st94{fill:url(#SVGID_20_);}
	.st95{fill:url(#SVGID_21_);}
	.st96{fill:url(#SVGID_22_);}
	.st97{clip-path:url(#SVGID_24_);}
	.st98{opacity:0.75;clip-path:url(#SVGID_24_);}
	.st99{fill:none;stroke:#B4BCC7;stroke-width:2.626;stroke-miterlimit:10;}
	.st100{clip-path:url(#SVGID_26_);}
	.st101{opacity:0.05;clip-path:url(#SVGID_28_);}
	.st102{fill:url(#SVGID_29_);}
	.st103{fill:url(#SVGID_30_);}
	.st104{fill:url(#SVGID_31_);}
	.st105{opacity:0.65;}
	.st106{fill:url(#SVGID_32_);}
	.st107{fill:url(#SVGID_33_);}
	.st108{clip-path:url(#SVGID_35_);}
	.st109{opacity:0.05;clip-path:url(#SVGID_37_);}
	.st110{fill:url(#SVGID_38_);}
	.st111{fill:url(#SVGID_39_);}
	.st112{fill:url(#SVGID_40_);}
	.st113{fill:url(#SVGID_41_);}
	.st114{fill:url(#SVGID_42_);}
	.st115{clip-path:url(#SVGID_44_);}
	.st116{opacity:0.75;fill:#C4B2D7;}
	.st117{clip-path:url(#SVGID_46_);}
	.st118{clip-path:url(#SVGID_48_);}
	.st119{opacity:0.06;clip-path:url(#SVGID_50_);}
	.st120{fill:url(#SVGID_51_);}
	.st121{fill:url(#SVGID_52_);}
	.st122{fill:url(#SVGID_53_);}
	.st123{fill:url(#SVGID_54_);}
	.st124{clip-path:url(#SVGID_56_);}
	.st125{clip-path:url(#SVGID_58_);}
	.st126{opacity:0.06;clip-path:url(#SVGID_60_);}
	.st127{fill:url(#SVGID_61_);}
	.st128{fill:url(#SVGID_62_);}
	.st129{fill:url(#SVGID_63_);}
	.st130{fill:url(#SVGID_64_);}
	.st131{clip-path:url(#SVGID_66_);}
	.st132{opacity:0.75;fill:#00A6CC;}
	.st133{clip-path:url(#SVGID_66_);fill:#C4B2D7;}
	.st134{clip-path:url(#SVGID_66_);fill:#193966;}
	.st135{clip-path:url(#SVGID_68_);}
	.st136{clip-path:url(#SVGID_68_);fill:#C4B2D7;}
	.st137{clip-path:url(#SVGID_68_);fill:#193966;}
	.st138{fill:none;stroke:#193966;stroke-width:3.3528;stroke-linecap:round;stroke-linejoin:round;stroke-miterlimit:10;}
	.st139{fill:none;stroke:#C4B2D7;stroke-width:3.3528;stroke-linecap:round;stroke-linejoin:round;stroke-miterlimit:10;}
	.st140{fill:none;stroke:#193966;stroke-width:3.3528;stroke-linecap:round;stroke-miterlimit:10;}
	.st141{fill:none;stroke:#C4B2D7;stroke-width:3.3528;stroke-linecap:round;stroke-miterlimit:10;stroke-dasharray:0,5.5881;}
	.st142{fill:none;stroke:#193966;stroke-width:3.3528;stroke-linecap:round;stroke-miterlimit:10;stroke-dasharray:0,5.5881;}
	.st143{fill:none;stroke:#B4BCC7;stroke-width:3.3528;stroke-linecap:round;stroke-miterlimit:10;stroke-dasharray:0,6.9454;}
	.st144{fill:none;stroke:#B4BCC7;stroke-width:3.3528;stroke-linecap:round;stroke-miterlimit:10;stroke-dasharray:0,6.7634;}
	.st145{fill:none;stroke:#C4B2D7;stroke-width:3.3528;stroke-miterlimit:10;}
	.st146{fill:none;stroke:#FFFFFF;stroke-width:3;stroke-linecap:round;stroke-miterlimit:10;}
	.st147{fill:url(#SVGID_69_);}
	.st148{fill:url(#SVGID_70_);}
	.st149{fill:url(#SVGID_71_);}
	.st150{opacity:0.08;}
	.st151{fill:url(#SVGID_72_);}
	.st152{fill:url(#SVGID_73_);}
	.st153{fill:url(#SVGID_74_);}
	.st154{fill:url(#SVGID_75_);}
	.st155{fill:url(#SVGID_76_);}
	.st156{fill:url(#SVGID_77_);}
	.st157{fill:url(#SVGID_78_);}
	.st158{fill:url(#SVGID_79_);}
	.st159{fill:none;stroke:#B4BCC7;stroke-width:3;stroke-linecap:round;stroke-miterlimit:10;stroke-dasharray:0,6.3229;}
	.st160{fill:none;stroke:#B4BCC7;stroke-width:3;stroke-linecap:round;stroke-miterlimit:10;stroke-dasharray:0,5.7563;}
	.st161{fill:none;stroke:#B4BCC7;stroke-width:3;stroke-linecap:round;stroke-miterlimit:10;stroke-dasharray:0,5.3494;}
	.st162{fill:none;stroke:#B4BCC7;stroke-width:3;stroke-linecap:round;stroke-miterlimit:10;stroke-dasharray:0,5.5697;}
</style>
<g id="Layer_5">
</g>
<g id="Layer_1">
	<g>
		<g>
			<circle class="st0" cx="68" cy="96.088" r="67.912"/>
			<g class="st1">
				<g>
					<linearGradient id="SVGID_1_" gradientUnits="userSpaceOnUse" x1="100.1191" y1="-29.4555" x2="106.0778" y2="112.5605">
						<stop  offset="0" style="stop-color:#FFFFFF"/>
						<stop  offset="1" style="stop-color:#164882"/>
					</linearGradient>
					<path class="st2" d="M77.068,28.797c-8.292,20.438-3.519,45.969,9.197,53.331c23.935,13.859,37.109,26.946,44.906,38.882
						c3.048-7.719,4.741-16.12,4.741-24.922C135.912,61.658,110.284,33.232,77.068,28.797z"/>
				</g>
			</g>
			<g class="st1">
				<g>
					<linearGradient id="SVGID_2_" gradientUnits="userSpaceOnUse" x1="-52.475" y1="66.2881" x2="37.4023" y2="75.7227">
						<stop  offset="0" style="stop-color:#FFFFFF"/>
						<stop  offset="1" style="stop-color:#164882"/>
					</linearGradient>
					<path class="st4" d="M43.861,32.608C18.275,42.344,0.088,67.086,0.088,96.088c0,6.896,1.036,13.548,2.947,19.819
						C11.21,105.33,18.94,94.378,27.16,85.694C40.412,71.694,46.542,51.667,43.861,32.608z"/>
				</g>
			</g>
			<g class="st1">
				<g>
					<linearGradient id="SVGID_3_" gradientUnits="userSpaceOnUse" x1="157.0214" y1="189.3479" x2="110.8413" y2="138.2022">
						<stop  offset="0" style="stop-color:#FFFFFF"/>
						<stop  offset="0.8547" style="stop-color:#5C88B6"/>
						<stop  offset="1" style="stop-color:#164882"/>
					</linearGradient>
					<path class="st5" d="M135.912,96.088c0-3.566-0.278-7.066-0.808-10.483C115.995,73.854,85.396,66.52,52.825,68.746
						C36.064,69.891,27.82,87.184,29.401,97.003c3.982,24.721,20.64,37.376,32.738,66.729C64.072,163.897,66.024,164,68,164
						C105.507,164,135.912,133.595,135.912,96.088z"/>
				</g>
			</g>
		</g>
		<g>
			<path class="st7" d="M118.207,121.732l-20.09-9.098c3.653-5.59,5.782-12.263,5.782-19.44V39.092
				c0-20.09-16.642-36.293-36.894-35.574C47.714,4.203,32.704,20.643,32.704,39.946v53.248c0,7.141,2.111,13.785,5.729,19.357
				l-20.24,9.236c-3.171,1.447-5.529,4.236-6.429,7.603l-0.903,3.38C22.942,151.55,44.01,164,68,164
				c24.229,0,45.48-12.698,57.5-31.792l-0.691-2.647C123.901,126.089,121.476,123.212,118.207,121.732z"/>
			<path class="st116" d="M118.207,121.732l-20.09-9.098c3.653-5.59,5.782-12.263,5.782-19.44V39.092
				c0-20.09-16.642-36.293-36.894-35.574C47.714,4.203,32.704,20.643,32.704,39.946v53.248c0,7.141,2.111,13.785,5.729,19.357
				l-20.24,9.236c-3.171,1.447-5.529,4.236-6.429,7.603l-0.903,3.38C22.942,151.55,44.01,164,68,164
				c24.229,0,45.48-12.698,57.5-31.792l-0.691-2.647C123.901,126.089,121.476,123.212,118.207,121.732z"/>
			<path class="st11" d="M44.288,109.882l3.646-1.661c0.017-0.007,0.003-16.706,0.001-19.317c-3.808-5.28-6.553-12.033-7.743-19.596
				c-2.759-0.044-4.984-2.29-4.984-5.059V54.123c0-0.071,0.008-0.14,0.011-0.211c0.075-1.81,1.1-3.372,2.59-4.206v-0.645v-5.063
				c0-2.796,2.267-5.062,5.062-5.062l13.676-0.011c4.115-0.003,7.987-1.944,10.452-5.239l0.094-0.126
				c0.543-0.726,1.634-0.72,2.168,0.013v0c2.46,3.37,6.381,5.363,10.554,5.363H93.5c2.796,0,5.063,2.267,5.063,5.063v5.062v0.645
				c1.487,0.833,2.512,2.396,2.588,4.206c0.003,0.071,0.009,0.14,0.009,0.211v10.126c0,2.769-2.223,5.015-4.982,5.059
				c-1.19,7.563-3.935,14.316-7.742,19.596c-0.003,2.618-0.017,19.31,0,19.317l7.882,3.592l1.124,0.512l0.674,0.309
				c3.653-5.59,5.782-12.263,5.782-19.44l0-53.249c0-20.902-15.011-35.742-34.301-36.427C49.346,2.8,32.704,19.003,32.704,39.092
				v54.101c0,7.141,2.111,13.785,5.729,19.357l2.46-1.121L44.288,109.882z"/>
			<path class="st9" d="M68.181,125.16c10.595,0,19.72-6.259,23.897-15.278l-3.641-1.66c-0.017-0.007-0.003-16.699,0-19.317
				c-5.184,7.188-12.34,11.64-20.25,11.64h-0.002c-7.91,0-15.067-4.452-20.25-11.64c0.002,2.611,0.016,19.31-0.001,19.317
				l-3.646,1.661C48.464,118.901,57.589,125.16,68.181,125.16z"/>
			<path class="st9" d="M68.185,100.543h0.002c7.91,0,15.066-4.452,20.25-11.64c3.807-5.279,6.552-12.033,7.742-19.596
				c2.759-0.044,4.982-2.29,4.982-5.059V54.123c0-0.071-0.007-0.14-0.009-0.211c-0.076-1.81-1.101-3.372-2.588-4.206v-6.033
				c0-2.617-2.121-4.738-4.738-4.738H92.11c0.007,0.014,0.013,0.029,0,0l-12.105-0.01c-4.14-0.004-8.043-1.93-10.563-5.214l0,0
				c-0.633-0.825-1.876-0.825-2.509,0l0,0c-2.521,3.284-6.424,5.21-10.563,5.214l-12.107,0.01h-1.715
				c-2.616,0-4.737,2.121-4.737,4.737v6.034c-1.49,0.833-2.515,2.396-2.59,4.206c-0.003,0.071-0.011,0.14-0.011,0.211v10.126
				c0,2.769,2.225,5.015,4.984,5.059c1.189,7.563,3.934,14.315,7.743,19.596C53.118,96.091,60.275,100.543,68.185,100.543z"/>
			<path class="st7" d="M92.078,109.881c-4.177,9.019-13.303,15.278-23.897,15.278c-10.592,0-19.716-6.258-23.893-15.277
				l-6.29,2.858c5.265,11.398,16.789,19.31,30.167,19.31c13.381,0,24.907-7.913,30.172-19.313L92.078,109.881z"/>
			<path class="st7" d="M11.764,129.39l-0.903,3.38c3.522,5.475,7.806,10.408,12.707,14.653c-1.063-9.101-2.974-19.216-5.747-25.441
				C14.843,123.474,12.628,126.159,11.764,129.39z"/>
			<path class="st7" d="M118.302,121.781c-2.836,6.17-4.784,16.425-5.859,25.632c5.064-4.389,9.471-9.51,13.057-15.206l-0.692-2.647
				C123.911,126.124,121.521,123.275,118.302,121.781z"/>
		</g>
	</g>
</g>
<g id="Layer_2">
</g>
<g id="Layer_3">
</g>
<g id="Layer_4">
</g>
</svg>
