<?xml version="1.0" encoding="utf-8"?>
<!-- Generator: Adobe Illustrator 23.0.1, SVG Export Plug-In . SVG Version: 6.00 Build 0)  -->
<svg version="1.1" xmlns="http://www.w3.org/2000/svg" xmlns:xlink="http://www.w3.org/1999/xlink" x="0px" y="0px"
	 viewBox="0 0 136 164" style="enable-background:new 0 0 136 164;" xml:space="preserve">
<style type="text/css">
	.st0{opacity:0.2;fill:#FFFFFF;}
	.st1{opacity:0.06;}
	.st2{fill:url(#SVGID_1_);}
	.st3{opacity:0.06;enable-background:new    ;}
	.st4{fill:url(#SVGID_2_);}
	.st5{fill:url(#SVGID_3_);}
	.st6{fill:url(#SVGID_4_);}
	.st7{fill:#C4B2D7;}
	.st8{opacity:0.75;}
	.st9{fill:#FFFFFF;}
	.st10{fill:none;stroke:#193966;stroke-width:2.1884;stroke-miterlimit:10;}
	.st11{fill:#00A6CC;}
	.st12{fill:none;stroke:#193966;stroke-width:2.0923;stroke-miterlimit:10;}
	.st13{fill:none;stroke:#193966;stroke-width:1.313;stroke-linejoin:round;stroke-miterlimit:10;}
	.st14{opacity:0.25;fill:#B4BCC7;}
	.st15{fill:none;stroke:#193966;stroke-width:2;stroke-miterlimit:10;}
	.st16{fill:none;stroke:#C4B2D7;stroke-width:4;stroke-linecap:round;stroke-miterlimit:10;}
	.st17{fill:#193966;}
	.st18{fill:#B4BCC7;}
	.st19{fill:#333941;}
	.st20{fill:#010101;}
	.st21{clip-path:url(#SVGID_6_);}
	.st22{fill:none;stroke:#010101;stroke-width:1.5;stroke-miterlimit:10;}
	.st23{clip-path:url(#SVGID_8_);}
	.st24{fill:none;stroke:#010101;stroke-width:0.904;stroke-linejoin:round;stroke-miterlimit:10;}
	.st25{fill:none;stroke:#193966;stroke-width:1.1951;stroke-miterlimit:10;}
	.st26{clip-path:url(#SVGID_10_);}
	.st27{fill:#2C3E50;}
	.st28{fill:#5D6E7E;}
	.st29{fill:#2E3F50;}
	.st30{fill:#7E8D8C;}
	.st31{fill:#20414B;}
	.st32{fill:#2D5A67;}
	.st33{clip-path:url(#SVGID_12_);}
	.st34{fill:#C4B2D7;stroke:#010101;stroke-width:1.5;stroke-miterlimit:10;}
	.st35{fill:#00A6CC;stroke:#010101;stroke-width:1.5;stroke-miterlimit:10;}
	.st36{fill:#FFFFFF;stroke:#010101;stroke-width:1.5;stroke-miterlimit:10;}
	.st37{clip-path:url(#SVGID_12_);fill:#C4B2D7;}
	.st38{clip-path:url(#SVGID_12_);fill:#FFFFFF;stroke:#010101;stroke-width:1.5;stroke-miterlimit:10;}
	.st39{fill:none;stroke:#010101;stroke-width:0.9317;stroke-miterlimit:10;}
	.st40{fill:#FBD764;}
	.st41{fill:#FFFFFF;stroke:#010101;stroke-width:0.9317;stroke-miterlimit:10;}
	.st42{fill:#FBD764;stroke:#010101;stroke-width:0.9507;stroke-miterlimit:10;}
	.st43{fill:#FFFFFF;stroke:#010101;stroke-width:0.9507;stroke-miterlimit:10;}
	.st44{fill:none;stroke:#010101;stroke-width:0.9507;stroke-miterlimit:10;}
	.st45{fill:none;stroke:#010101;stroke-width:0.6903;stroke-miterlimit:10;}
	.st46{fill:#BFE3DA;stroke:#010101;stroke-width:0.6903;stroke-miterlimit:10;}
	.st47{fill:#FFFFFF;stroke:#010101;stroke-width:0.6903;stroke-miterlimit:10;}
	.st48{clip-path:url(#SVGID_14_);fill:#FFFFFF;stroke:#010101;stroke-width:0.9295;stroke-miterlimit:10;}
	.st49{fill:none;stroke:#010101;stroke-width:0.9295;stroke-miterlimit:10;}
	.st50{fill:#FFFFFF;stroke:#010101;stroke-width:0.9295;stroke-miterlimit:10;}
	.st51{fill:none;}
	.st52{fill:none;stroke:#C4B2D7;stroke-width:2;stroke-miterlimit:10;}
	.st53{fill:#FFFFFF;stroke:#193966;stroke-miterlimit:10;}
	.st54{fill:#FFFFFF;stroke:#C4B2D7;stroke-miterlimit:10;}
	.st55{fill:#FFFFFF;stroke:#010101;stroke-miterlimit:10;}
	.st56{fill:none;stroke:#010101;stroke-miterlimit:10;}
	.st57{fill:none;stroke:#193966;stroke-miterlimit:10;}
	.st58{opacity:0.2;}
	.st59{opacity:0.1;}
	.st60{fill:none;stroke:#00A6CC;stroke-width:4;stroke-linecap:round;stroke-miterlimit:10;}
	.st61{fill:none;stroke:#193966;stroke-width:4;stroke-miterlimit:10;}
	.st62{fill:none;stroke:#00A6CC;stroke-width:4;stroke-miterlimit:10;}
	.st63{fill:none;stroke:#193966;stroke-width:1.803;stroke-miterlimit:10;}
	.st64{fill:none;stroke:#C4B2D7;stroke-width:2.5832;stroke-miterlimit:10;}
	.st65{fill:none;stroke:#C4B2D7;stroke-width:2.5832;stroke-linecap:round;stroke-miterlimit:10;}
	.st66{fill:none;stroke:#C4B2D7;stroke-width:2.4952;stroke-linecap:round;stroke-miterlimit:10;}
	.st67{fill:none;stroke:#193966;stroke-width:2.2599;stroke-linecap:round;stroke-miterlimit:10;}
	.st68{fill:none;stroke:#C4B2D7;stroke-width:2.5;stroke-linecap:round;stroke-miterlimit:10;}
	.st69{fill:none;stroke:#193966;stroke-width:2.4952;stroke-linecap:round;stroke-miterlimit:10;}
	.st70{fill:none;stroke:#193966;stroke-width:2.4952;stroke-miterlimit:10;}
	.st71{fill:none;stroke:#C4B2D7;stroke-width:2.4952;stroke-miterlimit:10;}
	.st72{fill:none;stroke:#B4BCC7;stroke-width:3;stroke-linecap:round;stroke-miterlimit:10;}
	.st73{fill:none;stroke:#B4BCC7;stroke-width:3;stroke-linecap:round;stroke-miterlimit:10;stroke-dasharray:0,6.0974;}
	.st74{fill:none;stroke:#B4BCC7;stroke-width:3;stroke-linecap:round;stroke-miterlimit:10;stroke-dasharray:0,5.8282;}
	.st75{fill:none;stroke:#B4BCC7;stroke-width:3;stroke-linecap:round;stroke-miterlimit:10;stroke-dasharray:0,5.0487;}
	.st76{fill:none;stroke:#193966;stroke-width:2.4952;stroke-linecap:round;stroke-miterlimit:10;stroke-dasharray:0,5;}
	.st77{fill:none;stroke:#C4B2D7;stroke-width:2.4952;stroke-linecap:round;stroke-miterlimit:10;stroke-dasharray:0,5;}
	.st78{fill:none;stroke:#B4BCC7;stroke-width:3.3528;stroke-linecap:round;stroke-miterlimit:10;}
	.st79{fill:none;stroke:#B4BCC7;stroke-width:3.3528;stroke-linecap:round;stroke-miterlimit:10;stroke-dasharray:0,5.8626;}
	.st80{fill:none;stroke:#B4BCC7;stroke-width:3.3528;stroke-linecap:round;stroke-miterlimit:10;stroke-dasharray:0,6.8157;}
	.st81{fill:none;stroke:#C4B2D7;stroke-width:3.3528;stroke-linecap:round;stroke-miterlimit:10;}
	.st82{fill:none;stroke:#193966;stroke-width:3;stroke-miterlimit:10;}
	.st83{fill:none;stroke:#B4BCC7;stroke-width:3.3528;stroke-linecap:round;stroke-miterlimit:10;stroke-dasharray:0,6.138;}
	.st84{fill:none;stroke:#B4BCC7;stroke-width:3.3528;stroke-linecap:round;stroke-miterlimit:10;stroke-dasharray:0,6.5136;}
	.st85{fill:none;stroke:#B4BCC7;stroke-width:3.3528;stroke-linecap:round;stroke-miterlimit:10;stroke-dasharray:0,7.4201;}
	.st86{fill:none;stroke:#C4B2D7;stroke-width:2.626;stroke-miterlimit:10;}
	.st87{fill:none;stroke:#C4B2D7;stroke-width:2.626;stroke-linejoin:bevel;stroke-miterlimit:10;}
	.st88{fill:none;stroke:#FFFFFF;stroke-width:2.626;stroke-linecap:round;stroke-linejoin:round;stroke-miterlimit:10;}
	.st89{fill:none;stroke:#FFFFFF;stroke-width:2.626;stroke-linejoin:bevel;stroke-miterlimit:10;}
	.st90{fill:none;stroke:#FFFFFF;stroke-width:2.626;stroke-miterlimit:10;}
	.st91{clip-path:url(#SVGID_16_);}
	.st92{opacity:0.08;clip-path:url(#SVGID_18_);}
	.st93{fill:url(#SVGID_19_);}
	.st94{fill:url(#SVGID_20_);}
	.st95{fill:url(#SVGID_21_);}
	.st96{fill:url(#SVGID_22_);}
	.st97{clip-path:url(#SVGID_24_);}
	.st98{opacity:0.75;clip-path:url(#SVGID_24_);}
	.st99{fill:none;stroke:#B4BCC7;stroke-width:2.626;stroke-miterlimit:10;}
	.st100{clip-path:url(#SVGID_26_);}
	.st101{opacity:0.05;clip-path:url(#SVGID_28_);}
	.st102{fill:url(#SVGID_29_);}
	.st103{fill:url(#SVGID_30_);}
	.st104{fill:url(#SVGID_31_);}
	.st105{opacity:0.65;}
	.st106{fill:url(#SVGID_32_);}
	.st107{fill:url(#SVGID_33_);}
	.st108{clip-path:url(#SVGID_35_);}
	.st109{opacity:0.05;clip-path:url(#SVGID_37_);}
	.st110{fill:url(#SVGID_38_);}
	.st111{fill:url(#SVGID_39_);}
	.st112{fill:url(#SVGID_40_);}
	.st113{fill:url(#SVGID_41_);}
	.st114{fill:url(#SVGID_42_);}
	.st115{clip-path:url(#SVGID_44_);}
	.st116{opacity:0.75;fill:#C4B2D7;}
	.st117{clip-path:url(#SVGID_46_);}
	.st118{clip-path:url(#SVGID_48_);}
	.st119{opacity:0.06;clip-path:url(#SVGID_50_);}
	.st120{fill:url(#SVGID_51_);}
	.st121{fill:url(#SVGID_52_);}
	.st122{fill:url(#SVGID_53_);}
	.st123{fill:url(#SVGID_54_);}
	.st124{clip-path:url(#SVGID_56_);}
	.st125{clip-path:url(#SVGID_58_);}
	.st126{opacity:0.06;clip-path:url(#SVGID_60_);}
	.st127{fill:url(#SVGID_61_);}
	.st128{fill:url(#SVGID_62_);}
	.st129{fill:url(#SVGID_63_);}
	.st130{fill:url(#SVGID_64_);}
	.st131{clip-path:url(#SVGID_66_);}
	.st132{opacity:0.75;fill:#00A6CC;}
	.st133{clip-path:url(#SVGID_66_);fill:#C4B2D7;}
	.st134{clip-path:url(#SVGID_66_);fill:#193966;}
	.st135{clip-path:url(#SVGID_68_);}
	.st136{clip-path:url(#SVGID_68_);fill:#C4B2D7;}
	.st137{clip-path:url(#SVGID_68_);fill:#193966;}
	.st138{fill:none;stroke:#193966;stroke-width:3.3528;stroke-linecap:round;stroke-linejoin:round;stroke-miterlimit:10;}
	.st139{fill:none;stroke:#C4B2D7;stroke-width:3.3528;stroke-linecap:round;stroke-linejoin:round;stroke-miterlimit:10;}
	.st140{fill:none;stroke:#193966;stroke-width:3.3528;stroke-linecap:round;stroke-miterlimit:10;}
	.st141{fill:none;stroke:#C4B2D7;stroke-width:3.3528;stroke-linecap:round;stroke-miterlimit:10;stroke-dasharray:0,5.5881;}
	.st142{fill:none;stroke:#193966;stroke-width:3.3528;stroke-linecap:round;stroke-miterlimit:10;stroke-dasharray:0,5.5881;}
	.st143{fill:none;stroke:#B4BCC7;stroke-width:3.3528;stroke-linecap:round;stroke-miterlimit:10;stroke-dasharray:0,6.9454;}
	.st144{fill:none;stroke:#B4BCC7;stroke-width:3.3528;stroke-linecap:round;stroke-miterlimit:10;stroke-dasharray:0,6.7634;}
	.st145{fill:none;stroke:#C4B2D7;stroke-width:3.3528;stroke-miterlimit:10;}
	.st146{fill:none;stroke:#FFFFFF;stroke-width:3;stroke-linecap:round;stroke-miterlimit:10;}
	.st147{fill:url(#SVGID_69_);}
	.st148{fill:url(#SVGID_70_);}
	.st149{fill:url(#SVGID_71_);}
	.st150{opacity:0.08;}
	.st151{fill:url(#SVGID_72_);}
	.st152{fill:url(#SVGID_73_);}
	.st153{fill:url(#SVGID_74_);}
	.st154{fill:url(#SVGID_75_);}
	.st155{fill:url(#SVGID_76_);}
	.st156{fill:url(#SVGID_77_);}
	.st157{fill:url(#SVGID_78_);}
	.st158{fill:url(#SVGID_79_);}
	.st159{fill:none;stroke:#B4BCC7;stroke-width:3;stroke-linecap:round;stroke-miterlimit:10;stroke-dasharray:0,6.3229;}
	.st160{fill:none;stroke:#B4BCC7;stroke-width:3;stroke-linecap:round;stroke-miterlimit:10;stroke-dasharray:0,5.7563;}
	.st161{fill:none;stroke:#B4BCC7;stroke-width:3;stroke-linecap:round;stroke-miterlimit:10;stroke-dasharray:0,5.3494;}
	.st162{fill:none;stroke:#B4BCC7;stroke-width:3;stroke-linecap:round;stroke-miterlimit:10;stroke-dasharray:0,5.5697;}
</style>
<g id="Layer_5">
</g>
<g id="Layer_1">
	<g>
		<g>
			<circle class="st0" cx="68" cy="96.088" r="67.912"/>
			<g>
				<g class="st1">
					<g>
						<linearGradient id="SVGID_1_" gradientUnits="userSpaceOnUse" x1="92.7274" y1="90.6463" x2="113.7646" y2="58.8957">
							<stop  offset="0" style="stop-color:#FFFFFF"/>
							<stop  offset="1" style="stop-color:#306295"/>
						</linearGradient>
						<path class="st2" d="M67.623,63.337c2.593,9.077,6.492,17.768,11.772,25.766c10.516,15.927,28.782,30.317,47.322,41.122
							c15.136-25.996,11.576-59.885-10.696-82.158c-11.8-11.8-26.863-18.336-42.285-19.636
							C67.139,41.07,64.745,53.263,67.623,63.337z"/>
					</g>
				</g>
				<g class="st3">
					<g>
						<linearGradient id="SVGID_2_" gradientUnits="userSpaceOnUse" x1="83.6524" y1="111.5706" x2="86.5998" y2="179.9288">
							<stop  offset="0" style="stop-color:#FFFFFF"/>
							<stop  offset="1" style="stop-color:#164882"/>
						</linearGradient>
						<path class="st4" d="M116.021,144.109c11.418-11.418,17.907-25.892,19.494-40.789c-45.986,37.068-75.536,32.008-102.23,51.148
							C59.354,169.996,93.583,166.547,116.021,144.109z"/>
					</g>
				</g>
				<g class="st3">
					<g>
						<linearGradient id="SVGID_3_" gradientUnits="userSpaceOnUse" x1="40.238" y1="83.5457" x2="-18.4953" y2="142.7698">
							<stop  offset="0" style="stop-color:#FFFFFF"/>
							<stop  offset="1" style="stop-color:#164882"/>
						</linearGradient>
						<path class="st5" d="M56.442,106.062C45.995,90.754,25.834,89.005,4.427,72.214c-6.733,17.964-5.611,38.202,3.401,55.394
							C38.2,124.628,64.943,118.52,56.442,106.062z"/>
					</g>
				</g>
				<g class="st1">
					<g>
						<linearGradient id="SVGID_4_" gradientUnits="userSpaceOnUse" x1="21.8622" y1="47.9042" x2="43.6887" y2="59.9088">
							<stop  offset="0" style="stop-color:#FFFFFF"/>
							<stop  offset="1" style="stop-color:#164882"/>
						</linearGradient>
						<path class="st6" d="M72.69,28.357c-18.909-1.301-38.257,5.256-52.711,19.71C9.799,58.248,3.542,70.858,1.177,84.03
							C29.379,84.917,59.94,63.303,72.69,28.357z"/>
					</g>
				</g>
			</g>
		</g>
		<g>
			<g>
				<g>
					<g>
						<g>
							<g>
								<g>
									<g>
										<g>
											<g>
												<path class="st7" d="M82.297,22.528l-7.659,5.648H61.451l-7.661-5.648H11.03v110.506C23.138,151.667,44.123,164,68,164
													c23.935,0,44.962-12.393,57.057-31.101V22.528H82.297z"/>
											</g>
											<g class="st8">
												<path class="st7" d="M21.658,33.004v112.705C33.794,157.048,50.081,164,68,164c21.695,0,40.999-10.185,53.432-26.021
													V33.004H21.658z"/>
											</g>
											<g>
												<path class="st9" d="M18.156,29.503v112.694C30.562,155.601,48.297,164,68,164c19.749,0,37.521-8.436,49.93-21.894
													V29.503H18.156z"/>
											</g>
											<line class="st10" x1="101.567" y1="82.389" x2="48.156" y2="82.389"/>
										</g>
									</g>
									<g>
										<g>
											<line class="st10" x1="97.347" y1="75.262" x2="48.156" y2="75.262"/>
										</g>
									</g>
								</g>
								<rect x="32.411" y="74.021" class="st11" width="9.414" height="9.414"/>
								<polyline class="st12" points="31.464,78.091 36.277,82.352 43.798,71.322 								"/>
							</g>
							<path class="st13" d="M68.976,143.525c8.078-2.471,16.306-4.595,24.646-6.362c-10.384,1.665-20.199,5.569-28.377,11.285
								c-1.341,0.938-2.662,1.947-3.533,3.252c1.684-0.023,3.21-0.764,4.581-1.582c4.422-2.639,7.97-6.241,11.332-9.9
								c-0.672,2.508-1.553,4.965-2.632,7.345c1.447-1.21,2.895-2.42,4.342-3.63c0.246-0.206,0.577-0.426,0.9-0.304
								c0.226,0.085,0.343,0.307,0.428,0.511c0.334,0.8,0.52,1.643,0.547,2.485c1.306-0.712,1.925-2.165,3.268-2.821
								c1.218-0.595,2.916-0.345,3.92,0.577c0.202,0.185,0.38,0.399,0.463,0.644c0.196,0.582-0.184,1.162-0.576,1.637
								c-2.118,2.564-5.081,4.561-8.453,5.698c-0.311,0.105-0.689,0.196-0.969,0.017c-0.472-0.302-0.147-0.943,0.227-1.311
								c5.368-5.285,14.211-7.294,18.841-13.109c-2.652,2.173-4.457,5.139-5.074,8.336c-0.073,0.379-0.122,0.799,0.114,1.135
								c0.272,0.387,0.824,0.527,1.326,0.6c2.444,0.355,4.99-0.117,7.001-1.297c-1.129-0.1-2.277,0.28-3.026,1.002
								c0.521-0.035,1.018-0.233,1.386-0.55"/>
							<g>
								<g>
									<g>
										<g>
											<line class="st10" x1="103.677" y1="123.684" x2="48.156" y2="123.684"/>
										</g>
									</g>
									<g>
										<g>
											<line class="st10" x1="101.567" y1="116.557" x2="48.156" y2="116.557"/>
										</g>
									</g>
								</g>
								<rect x="32.411" y="115.316" class="st11" width="9.414" height="9.414"/>
								<polyline class="st12" points="31.464,119.345 36.277,123.606 43.798,112.576 								"/>
							</g>
							<g>
								<g>
									<g>
										<g>
											<line class="st10" x1="101.567" y1="103.036" x2="48.156" y2="103.036"/>
										</g>
									</g>
									<g>
										<g>
											<line class="st10" x1="97.347" y1="95.91" x2="48.156" y2="95.91"/>
										</g>
									</g>
								</g>
								<rect x="32.411" y="94.668" class="st11" width="9.414" height="9.414"/>
								<polyline class="st12" points="31.464,98.718 36.277,102.979 43.798,91.949 								"/>
							</g>
							<g>
								<g>
									<line class="st10" x1="103.677" y1="57.739" x2="32.411" y2="57.739"/>
								</g>
							</g>
							<g>
								<g>
									<line class="st10" x1="103.677" y1="50.672" x2="32.411" y2="50.672"/>
								</g>
							</g>
						</g>
						<g>
							<g>
								<g>
									<g>
										<rect x="39.537" y="29.324" class="st14" width="57.014" height="7.411"/>
										<g>
											<path class="st11" d="M82.297,18.776c0-7.871-6.381-14.253-14.253-14.253S53.79,10.905,53.79,18.776H39.537V33.03h57.014
												V18.776H82.297z M68.044,25.37c-3.642,0-6.593-2.952-6.593-6.594c0-3.641,2.951-6.593,6.593-6.593
												c3.641,0,6.593,2.952,6.593,6.593C74.637,22.418,71.685,25.37,68.044,25.37z"/>
										</g>
									</g>
								</g>
							</g>
						</g>
					</g>
				</g>
			</g>
		</g>
	</g>
</g>
<g id="Layer_2">
</g>
<g id="Layer_3">
</g>
<g id="Layer_4">
</g>
</svg>
