<?xml version="1.0" encoding="utf-8"?>
<!-- Generator: Adobe Illustrator 23.0.1, SVG Export Plug-In . SVG Version: 6.00 Build 0)  -->
<svg version="1.1" xmlns="http://www.w3.org/2000/svg" xmlns:xlink="http://www.w3.org/1999/xlink" x="0px" y="0px"
	 viewBox="0 0 136 164" style="enable-background:new 0 0 136 164;" xml:space="preserve">
<style type="text/css">
	.st0{opacity:0.2;fill:#FFFFFF;}
	.st1{opacity:0.06;}
	.st2{fill:url(#SVGID_1_);}
	.st3{opacity:0.06;enable-background:new    ;}
	.st4{fill:url(#SVGID_2_);}
	.st5{fill:url(#SVGID_3_);}
	.st6{fill:url(#SVGID_4_);}
	.st7{fill:#C4B2D7;}
	.st8{opacity:0.75;}
	.st9{fill:#FFFFFF;}
	.st10{fill:none;stroke:#193966;stroke-width:2.1884;stroke-miterlimit:10;}
	.st11{fill:#00A6CC;}
	.st12{fill:none;stroke:#193966;stroke-width:2.0923;stroke-miterlimit:10;}
	.st13{fill:none;stroke:#193966;stroke-width:1.313;stroke-linejoin:round;stroke-miterlimit:10;}
	.st14{opacity:0.25;fill:#B4BCC7;}
	.st15{fill:none;stroke:#193966;stroke-width:2;stroke-miterlimit:10;}
	.st16{fill:none;stroke:#C4B2D7;stroke-width:4;stroke-linecap:round;stroke-miterlimit:10;}
	.st17{fill:#193966;}
	.st18{fill:#B4BCC7;}
	.st19{fill:#333941;}
	.st20{fill:#010101;}
	.st21{clip-path:url(#SVGID_6_);}
	.st22{fill:none;stroke:#010101;stroke-width:1.5;stroke-miterlimit:10;}
	.st23{clip-path:url(#SVGID_8_);}
	.st24{fill:none;stroke:#010101;stroke-width:0.904;stroke-linejoin:round;stroke-miterlimit:10;}
	.st25{fill:none;stroke:#193966;stroke-width:1.1951;stroke-miterlimit:10;}
	.st26{clip-path:url(#SVGID_10_);}
	.st27{fill:#2C3E50;}
	.st28{fill:#5D6E7E;}
	.st29{fill:#2E3F50;}
	.st30{fill:#7E8D8C;}
	.st31{fill:#20414B;}
	.st32{fill:#2D5A67;}
	.st33{clip-path:url(#SVGID_12_);}
	.st34{fill:#C4B2D7;stroke:#010101;stroke-width:1.5;stroke-miterlimit:10;}
	.st35{fill:#00A6CC;stroke:#010101;stroke-width:1.5;stroke-miterlimit:10;}
	.st36{fill:#FFFFFF;stroke:#010101;stroke-width:1.5;stroke-miterlimit:10;}
	.st37{clip-path:url(#SVGID_12_);fill:#C4B2D7;}
	.st38{clip-path:url(#SVGID_12_);fill:#FFFFFF;stroke:#010101;stroke-width:1.5;stroke-miterlimit:10;}
	.st39{fill:none;stroke:#010101;stroke-width:0.9317;stroke-miterlimit:10;}
	.st40{fill:#FBD764;}
	.st41{fill:#FFFFFF;stroke:#010101;stroke-width:0.9317;stroke-miterlimit:10;}
	.st42{fill:#FBD764;stroke:#010101;stroke-width:0.9507;stroke-miterlimit:10;}
	.st43{fill:#FFFFFF;stroke:#010101;stroke-width:0.9507;stroke-miterlimit:10;}
	.st44{fill:none;stroke:#010101;stroke-width:0.9507;stroke-miterlimit:10;}
	.st45{fill:none;stroke:#010101;stroke-width:0.6903;stroke-miterlimit:10;}
	.st46{fill:#BFE3DA;stroke:#010101;stroke-width:0.6903;stroke-miterlimit:10;}
	.st47{fill:#FFFFFF;stroke:#010101;stroke-width:0.6903;stroke-miterlimit:10;}
	.st48{clip-path:url(#SVGID_14_);fill:#FFFFFF;stroke:#010101;stroke-width:0.9295;stroke-miterlimit:10;}
	.st49{fill:none;stroke:#010101;stroke-width:0.9295;stroke-miterlimit:10;}
	.st50{fill:#FFFFFF;stroke:#010101;stroke-width:0.9295;stroke-miterlimit:10;}
	.st51{fill:none;}
	.st52{fill:none;stroke:#C4B2D7;stroke-width:2;stroke-miterlimit:10;}
	.st53{fill:#FFFFFF;stroke:#193966;stroke-miterlimit:10;}
	.st54{fill:#FFFFFF;stroke:#C4B2D7;stroke-miterlimit:10;}
	.st55{fill:#FFFFFF;stroke:#010101;stroke-miterlimit:10;}
	.st56{fill:none;stroke:#010101;stroke-miterlimit:10;}
	.st57{fill:none;stroke:#193966;stroke-miterlimit:10;}
	.st58{opacity:0.2;}
	.st59{opacity:0.1;}
	.st60{fill:none;stroke:#00A6CC;stroke-width:4;stroke-linecap:round;stroke-miterlimit:10;}
	.st61{fill:none;stroke:#193966;stroke-width:4;stroke-miterlimit:10;}
	.st62{fill:none;stroke:#00A6CC;stroke-width:4;stroke-miterlimit:10;}
	.st63{fill:none;stroke:#193966;stroke-width:1.803;stroke-miterlimit:10;}
	.st64{fill:none;stroke:#C4B2D7;stroke-width:2.5832;stroke-miterlimit:10;}
	.st65{fill:none;stroke:#C4B2D7;stroke-width:2.5832;stroke-linecap:round;stroke-miterlimit:10;}
	.st66{fill:none;stroke:#C4B2D7;stroke-width:2.4952;stroke-linecap:round;stroke-miterlimit:10;}
	.st67{fill:none;stroke:#193966;stroke-width:2.2599;stroke-linecap:round;stroke-miterlimit:10;}
	.st68{fill:none;stroke:#C4B2D7;stroke-width:2.5;stroke-linecap:round;stroke-miterlimit:10;}
	.st69{fill:none;stroke:#193966;stroke-width:2.4952;stroke-linecap:round;stroke-miterlimit:10;}
	.st70{fill:none;stroke:#193966;stroke-width:2.4952;stroke-miterlimit:10;}
	.st71{fill:none;stroke:#C4B2D7;stroke-width:2.4952;stroke-miterlimit:10;}
	.st72{fill:none;stroke:#B4BCC7;stroke-width:3;stroke-linecap:round;stroke-miterlimit:10;}
	.st73{fill:none;stroke:#B4BCC7;stroke-width:3;stroke-linecap:round;stroke-miterlimit:10;stroke-dasharray:0,6.0974;}
	.st74{fill:none;stroke:#B4BCC7;stroke-width:3;stroke-linecap:round;stroke-miterlimit:10;stroke-dasharray:0,5.8282;}
	.st75{fill:none;stroke:#B4BCC7;stroke-width:3;stroke-linecap:round;stroke-miterlimit:10;stroke-dasharray:0,5.0487;}
	.st76{fill:none;stroke:#193966;stroke-width:2.4952;stroke-linecap:round;stroke-miterlimit:10;stroke-dasharray:0,5;}
	.st77{fill:none;stroke:#C4B2D7;stroke-width:2.4952;stroke-linecap:round;stroke-miterlimit:10;stroke-dasharray:0,5;}
	.st78{fill:none;stroke:#B4BCC7;stroke-width:3.3528;stroke-linecap:round;stroke-miterlimit:10;}
	.st79{fill:none;stroke:#B4BCC7;stroke-width:3.3528;stroke-linecap:round;stroke-miterlimit:10;stroke-dasharray:0,5.8626;}
	.st80{fill:none;stroke:#B4BCC7;stroke-width:3.3528;stroke-linecap:round;stroke-miterlimit:10;stroke-dasharray:0,6.8157;}
	.st81{fill:none;stroke:#C4B2D7;stroke-width:3.3528;stroke-linecap:round;stroke-miterlimit:10;}
	.st82{fill:none;stroke:#193966;stroke-width:3;stroke-miterlimit:10;}
	.st83{fill:none;stroke:#B4BCC7;stroke-width:3.3528;stroke-linecap:round;stroke-miterlimit:10;stroke-dasharray:0,6.138;}
	.st84{fill:none;stroke:#B4BCC7;stroke-width:3.3528;stroke-linecap:round;stroke-miterlimit:10;stroke-dasharray:0,6.5136;}
	.st85{fill:none;stroke:#B4BCC7;stroke-width:3.3528;stroke-linecap:round;stroke-miterlimit:10;stroke-dasharray:0,7.4201;}
	.st86{fill:none;stroke:#C4B2D7;stroke-width:2.626;stroke-miterlimit:10;}
	.st87{fill:none;stroke:#C4B2D7;stroke-width:2.626;stroke-linejoin:bevel;stroke-miterlimit:10;}
	.st88{fill:none;stroke:#FFFFFF;stroke-width:2.626;stroke-linecap:round;stroke-linejoin:round;stroke-miterlimit:10;}
	.st89{fill:none;stroke:#FFFFFF;stroke-width:2.626;stroke-linejoin:bevel;stroke-miterlimit:10;}
	.st90{fill:none;stroke:#FFFFFF;stroke-width:2.626;stroke-miterlimit:10;}
	.st91{clip-path:url(#SVGID_16_);}
	.st92{opacity:0.08;clip-path:url(#SVGID_18_);}
	.st93{fill:url(#SVGID_19_);}
	.st94{fill:url(#SVGID_20_);}
	.st95{fill:url(#SVGID_21_);}
	.st96{fill:url(#SVGID_22_);}
	.st97{clip-path:url(#SVGID_24_);}
	.st98{opacity:0.75;clip-path:url(#SVGID_24_);}
	.st99{fill:none;stroke:#B4BCC7;stroke-width:2.626;stroke-miterlimit:10;}
	.st100{clip-path:url(#SVGID_26_);}
	.st101{opacity:0.05;clip-path:url(#SVGID_28_);}
	.st102{fill:url(#SVGID_29_);}
	.st103{fill:url(#SVGID_30_);}
	.st104{fill:url(#SVGID_31_);}
	.st105{opacity:0.65;}
	.st106{fill:url(#SVGID_32_);}
	.st107{fill:url(#SVGID_33_);}
	.st108{clip-path:url(#SVGID_35_);}
	.st109{opacity:0.05;clip-path:url(#SVGID_37_);}
	.st110{fill:url(#SVGID_38_);}
	.st111{fill:url(#SVGID_39_);}
	.st112{fill:url(#SVGID_40_);}
	.st113{fill:url(#SVGID_41_);}
	.st114{fill:url(#SVGID_42_);}
	.st115{clip-path:url(#SVGID_44_);}
	.st116{opacity:0.75;fill:#C4B2D7;}
	.st117{clip-path:url(#SVGID_46_);}
	.st118{clip-path:url(#SVGID_48_);}
	.st119{opacity:0.06;clip-path:url(#SVGID_50_);}
	.st120{fill:url(#SVGID_51_);}
	.st121{fill:url(#SVGID_52_);}
	.st122{fill:url(#SVGID_53_);}
	.st123{fill:url(#SVGID_54_);}
	.st124{clip-path:url(#SVGID_56_);}
	.st125{clip-path:url(#SVGID_58_);}
	.st126{opacity:0.06;clip-path:url(#SVGID_60_);}
	.st127{fill:url(#SVGID_61_);}
	.st128{fill:url(#SVGID_62_);}
	.st129{fill:url(#SVGID_63_);}
	.st130{fill:url(#SVGID_64_);}
	.st131{clip-path:url(#SVGID_66_);}
	.st132{opacity:0.75;fill:#00A6CC;}
	.st133{clip-path:url(#SVGID_66_);fill:#C4B2D7;}
	.st134{clip-path:url(#SVGID_66_);fill:#193966;}
	.st135{clip-path:url(#SVGID_68_);}
	.st136{clip-path:url(#SVGID_68_);fill:#C4B2D7;}
	.st137{clip-path:url(#SVGID_68_);fill:#193966;}
	.st138{fill:none;stroke:#193966;stroke-width:3.3528;stroke-linecap:round;stroke-linejoin:round;stroke-miterlimit:10;}
	.st139{fill:none;stroke:#C4B2D7;stroke-width:3.3528;stroke-linecap:round;stroke-linejoin:round;stroke-miterlimit:10;}
	.st140{fill:none;stroke:#193966;stroke-width:3.3528;stroke-linecap:round;stroke-miterlimit:10;}
	.st141{fill:none;stroke:#C4B2D7;stroke-width:3.3528;stroke-linecap:round;stroke-miterlimit:10;stroke-dasharray:0,5.5881;}
	.st142{fill:none;stroke:#193966;stroke-width:3.3528;stroke-linecap:round;stroke-miterlimit:10;stroke-dasharray:0,5.5881;}
	.st143{fill:none;stroke:#B4BCC7;stroke-width:3.3528;stroke-linecap:round;stroke-miterlimit:10;stroke-dasharray:0,6.9454;}
	.st144{fill:none;stroke:#B4BCC7;stroke-width:3.3528;stroke-linecap:round;stroke-miterlimit:10;stroke-dasharray:0,6.7634;}
	.st145{fill:none;stroke:#C4B2D7;stroke-width:3.3528;stroke-miterlimit:10;}
	.st146{fill:none;stroke:#FFFFFF;stroke-width:3;stroke-linecap:round;stroke-miterlimit:10;}
	.st147{fill:url(#SVGID_69_);}
	.st148{fill:url(#SVGID_70_);}
	.st149{fill:url(#SVGID_71_);}
	.st150{opacity:0.08;}
	.st151{fill:url(#SVGID_72_);}
	.st152{fill:url(#SVGID_73_);}
	.st153{fill:url(#SVGID_74_);}
	.st154{fill:url(#SVGID_75_);}
	.st155{fill:url(#SVGID_76_);}
	.st156{fill:url(#SVGID_77_);}
	.st157{fill:url(#SVGID_78_);}
	.st158{fill:url(#SVGID_79_);}
	.st159{fill:none;stroke:#B4BCC7;stroke-width:3;stroke-linecap:round;stroke-miterlimit:10;stroke-dasharray:0,6.3229;}
	.st160{fill:none;stroke:#B4BCC7;stroke-width:3;stroke-linecap:round;stroke-miterlimit:10;stroke-dasharray:0,5.7563;}
	.st161{fill:none;stroke:#B4BCC7;stroke-width:3;stroke-linecap:round;stroke-miterlimit:10;stroke-dasharray:0,5.3494;}
	.st162{fill:none;stroke:#B4BCC7;stroke-width:3;stroke-linecap:round;stroke-miterlimit:10;stroke-dasharray:0,5.5697;}
</style>
<g id="Layer_5">
</g>
<g id="Layer_1">
	<g>
		<g>
			<g class="st59">
				<g>
					<linearGradient id="SVGID_1_" gradientUnits="userSpaceOnUse" x1="115.1787" y1="39.3249" x2="32.4479" y2="122.7471">
						<stop  offset="0" style="stop-color:#FFFFFF"/>
						<stop  offset="1" style="stop-color:#164882"/>
					</linearGradient>
					<path class="st2" d="M68,28.163c-19.826,0-37.664,8.5-50.08,22.05c83.423,3.745,92.958,43.035,117.198,56.264
						c0.521-3.392,0.793-6.865,0.793-10.403C135.912,58.568,105.507,28.163,68,28.163z"/>
				</g>
			</g>
			<circle class="st0" cx="68" cy="96.075" r="67.912"/>
			<g class="st59">
				<g>
					<g>
						<g>
							<linearGradient id="SVGID_2_" gradientUnits="userSpaceOnUse" x1="92.6861" y1="147.1687" x2="109.0672" y2="106.7617">
								<stop  offset="0" style="stop-color:#FFFFFF"/>
								<stop  offset="1" style="stop-color:#164882"/>
							</linearGradient>
							<path class="st4" d="M135.912,96.075c0-22.918-36.843-21.034-46.613-7.578c-13.646,18.793,4.962,56.111-10.772,74.675
								C111.034,158.112,135.912,130,135.912,96.075z"/>
						</g>
					</g>
				</g>
			</g>
			<g class="st1">
				<g>
					
						<linearGradient id="SVGID_3_" gradientUnits="userSpaceOnUse" x1="155.235" y1="145.4747" x2="178.654" y2="110.1293" gradientTransform="matrix(0.9229 0.3849 -0.3849 0.9229 -34.7654 -34.1839)">
						<stop  offset="0" style="stop-color:#FFFFFF"/>
						<stop  offset="1" style="stop-color:#306295"/>
					</linearGradient>
					<path class="st5" d="M111.415,148.292c-0.758-0.628-1.517-1.251-2.285-1.841c-7.711-5.927-16.204-10.517-25.164-13.823
						c-15.541-5.734-37.07,1.074-57.928,16.84c4.724,3.708,10.007,6.861,15.82,9.285C65.985,168.816,92.604,163.905,111.415,148.292
						z"/>
				</g>
			</g>
			<g class="st1">
				<g>
					<linearGradient id="SVGID_4_" gradientUnits="userSpaceOnUse" x1="16.2275" y1="60.1278" x2="42.9639" y2="74.8329">
						<stop  offset="0" style="stop-color:#FFFFFF"/>
						<stop  offset="1" style="stop-color:#164882"/>
					</linearGradient>
					<path class="st6" d="M71.625,28.261c-1.201-0.063-2.409-0.098-3.625-0.098c-37.507,0-67.912,30.405-67.912,67.912
						c0,6.6,0.959,12.973,2.715,19.006C49.805,101.293,73.778,61.629,71.625,28.261z"/>
				</g>
			</g>
		</g>
		<g>
			<path class="st7" d="M106.973,9.802H29.027c-5.129,0-9.286,4.157-9.286,9.286v124.757C32.049,156.279,49.122,163.986,68,163.986
				c18.878,0,35.951-7.708,48.259-20.141V19.088C116.259,13.96,112.102,9.802,106.973,9.802z"/>
			<g>
				<g class="st8">
					<path class="st7" d="M116.201,19.217c-0.01-0.003-2.312,3.683-5.116,8.19L32.428,153.854c-0.017,0.028-0.009,0.065,0.019,0.083
						c10.342,6.368,22.516,10.05,35.553,10.05c18.848,0,35.897-7.683,48.201-20.082c0.037-0.038,0.058-0.089,0.058-0.142V28.885
						C116.259,23.577,116.211,19.22,116.201,19.217z"/>
				</g>
			</g>
			<g>
				<path class="st9" d="M103.212,15.054H88.708c-1.768,0-3.201,1.433-3.201,3.201v0.286c0,3.975-3.223,7.198-7.198,7.198H57.691
					c-3.975,0-7.198-3.222-7.198-7.198c0-1.926-1.561-3.487-3.487-3.487H32.788c-4.305,0-7.795,3.49-7.795,7.795v125.763
					c11.712,9.601,26.681,15.374,43.007,15.374c16.326,0,31.295-5.773,43.007-15.374V22.849
					C111.007,18.544,107.517,15.054,103.212,15.054z"/>
			</g>
			<g>
				<g>
					<rect x="58.969" y="17.624" class="st7" width="11.393" height="2.626"/>
				</g>
				<g>
					<circle class="st7" cx="75.653" cy="18.936" r="1.722"/>
				</g>
				<g>
					<g>
						<g>
							<g>
								<rect x="94.26" y="25.062" class="st18" width="7.993" height="2.626"/>
							</g>
						</g>
					</g>
					<g>
						<g>
							<rect x="60.601" y="137.446" class="st17" width="31.539" height="2.188"/>
						</g>
						<g>
							<rect x="60.601" y="151.667" class="st17" width="18.002" height="2.188"/>
						</g>
						<g>
							<rect x="37.625" y="99.655" class="st17" width="55.922" height="2.188"/>
						</g>
						<g>
							<rect x="37.625" y="92.723" class="st17" width="59.285" height="2.188"/>
						</g>
						<g>
							<rect x="37.625" y="110.736" class="st11" width="16.548" height="17.155"/>
						</g>
						<g>
							<rect x="82.132" y="110.736" class="st11" width="16.548" height="17.155"/>
						</g>
						<g>
							<rect x="59.879" y="110.736" class="st11" width="16.548" height="17.155"/>
						</g>
						<g>
							<g>
								<rect x="38.51" y="42.635" class="st11" width="8.496" height="41.04"/>
							</g>
						</g>
						<g>
							<g>
								<rect x="55.809" y="65.901" class="st18" width="8.19" height="17.773"/>
							</g>
						</g>
						<g>
							<g>
								<rect x="72.494" y="39.242" class="st7" width="8.496" height="44.432"/>
							</g>
						</g>
						<g>
							<g>
								<rect x="89.299" y="46.566" class="st17" width="8.496" height="37.108"/>
							</g>
						</g>
						<g>
							<g>
								<g>
									<path class="st11" d="M46.121,140.823c0.993,0,1.913,0.328,2.666,0.886l3-4.435c-1.6-1.186-3.555-1.884-5.665-1.884
										c-3.878,0-7.23,2.354-8.822,5.771l4.671,2.376C42.719,141.931,44.296,140.823,46.121,140.823z"/>
								</g>
								<g>
									<path class="st7" d="M50.501,144.123l4.928-1.719c-0.666-2.09-1.957-3.881-3.642-5.13l-3,4.435
										C49.58,142.297,50.187,143.14,50.501,144.123z"/>
								</g>
								<g>
									<path class="st17" d="M55.428,142.405l-4.928,1.719c0.153,0.48,0.236,0.994,0.236,1.527c0,2.666-2.066,4.827-4.615,4.827
										c-2.549,0-4.615-2.161-4.615-4.827c0-0.757,0.167-1.474,0.464-2.112l-4.671-2.376c-0.632,1.356-0.987,2.879-0.987,4.488
										c0,5.666,4.391,10.259,9.809,10.259c5.417,0,9.809-4.593,9.809-10.259C55.93,144.516,55.753,143.425,55.428,142.405z"/>
								</g>
							</g>
						</g>
						<g>
							<rect x="60.601" y="144.556" class="st17" width="38.079" height="2.188"/>
						</g>
					</g>
				</g>
			</g>
		</g>
	</g>
</g>
<g id="Layer_2">
</g>
<g id="Layer_3">
</g>
<g id="Layer_4">
</g>
</svg>
