<?xml version="1.0" encoding="utf-8"?>
<!-- Generator: Adobe Illustrator 23.0.1, SVG Export Plug-In . SVG Version: 6.00 Build 0)  -->
<svg version="1.1" xmlns="http://www.w3.org/2000/svg" xmlns:xlink="http://www.w3.org/1999/xlink" x="0px" y="0px"
	 viewBox="0 0 115 115" style="enable-background:new 0 0 115 115;" xml:space="preserve">
<style type="text/css">
	.st0{opacity:0.2;fill:#FFFFFF;}
	.st1{opacity:0.06;}
	.st2{fill:url(#SVGID_1_);}
	.st3{opacity:0.06;enable-background:new    ;}
	.st4{fill:url(#SVGID_2_);}
	.st5{fill:url(#SVGID_3_);}
	.st6{fill:url(#SVGID_4_);}
	.st7{fill:#C4B2D7;}
	.st8{opacity:0.75;}
	.st9{fill:#FFFFFF;}
	.st10{fill:none;stroke:#193966;stroke-width:2.1884;stroke-miterlimit:10;}
	.st11{fill:#00A6CC;}
	.st12{fill:none;stroke:#193966;stroke-width:2.0923;stroke-miterlimit:10;}
	.st13{fill:none;stroke:#193966;stroke-width:1.313;stroke-linejoin:round;stroke-miterlimit:10;}
	.st14{opacity:0.25;fill:#B4BCC7;}
	.st15{fill:none;stroke:#193966;stroke-width:2;stroke-miterlimit:10;}
	.st16{fill:none;stroke:#C4B2D7;stroke-width:4;stroke-linecap:round;stroke-miterlimit:10;}
	.st17{fill:#193966;}
	.st18{fill:#B4BCC7;}
	.st19{fill:#333941;}
	.st20{fill:#010101;}
	.st21{clip-path:url(#SVGID_6_);}
	.st22{fill:none;stroke:#010101;stroke-width:1.5;stroke-miterlimit:10;}
	.st23{clip-path:url(#SVGID_8_);}
	.st24{fill:none;stroke:#010101;stroke-width:0.904;stroke-linejoin:round;stroke-miterlimit:10;}
	.st25{fill:none;stroke:#193966;stroke-width:1.1951;stroke-miterlimit:10;}
	.st26{clip-path:url(#SVGID_10_);}
	.st27{fill:#2C3E50;}
	.st28{fill:#5D6E7E;}
	.st29{fill:#2E3F50;}
	.st30{fill:#7E8D8C;}
	.st31{fill:#20414B;}
	.st32{fill:#2D5A67;}
	.st33{clip-path:url(#SVGID_12_);}
	.st34{fill:#C4B2D7;stroke:#010101;stroke-width:1.5;stroke-miterlimit:10;}
	.st35{fill:#00A6CC;stroke:#010101;stroke-width:1.5;stroke-miterlimit:10;}
	.st36{fill:#FFFFFF;stroke:#010101;stroke-width:1.5;stroke-miterlimit:10;}
	.st37{clip-path:url(#SVGID_12_);fill:#C4B2D7;}
	.st38{clip-path:url(#SVGID_12_);fill:#FFFFFF;stroke:#010101;stroke-width:1.5;stroke-miterlimit:10;}
	.st39{fill:none;stroke:#010101;stroke-width:0.9317;stroke-miterlimit:10;}
	.st40{fill:#FBD764;}
	.st41{fill:#FFFFFF;stroke:#010101;stroke-width:0.9317;stroke-miterlimit:10;}
	.st42{fill:#FBD764;stroke:#010101;stroke-width:0.9507;stroke-miterlimit:10;}
	.st43{fill:#FFFFFF;stroke:#010101;stroke-width:0.9507;stroke-miterlimit:10;}
	.st44{fill:none;stroke:#010101;stroke-width:0.9507;stroke-miterlimit:10;}
	.st45{fill:none;stroke:#010101;stroke-width:0.6903;stroke-miterlimit:10;}
	.st46{fill:#BFE3DA;stroke:#010101;stroke-width:0.6903;stroke-miterlimit:10;}
	.st47{fill:#FFFFFF;stroke:#010101;stroke-width:0.6903;stroke-miterlimit:10;}
	.st48{clip-path:url(#SVGID_14_);fill:#FFFFFF;stroke:#010101;stroke-width:0.9295;stroke-miterlimit:10;}
	.st49{fill:none;stroke:#010101;stroke-width:0.9295;stroke-miterlimit:10;}
	.st50{fill:#FFFFFF;stroke:#010101;stroke-width:0.9295;stroke-miterlimit:10;}
	.st51{fill:none;}
	.st52{fill:none;stroke:#C4B2D7;stroke-width:2;stroke-miterlimit:10;}
	.st53{fill:#FFFFFF;stroke:#193966;stroke-miterlimit:10;}
	.st54{fill:#FFFFFF;stroke:#C4B2D7;stroke-miterlimit:10;}
	.st55{fill:#FFFFFF;stroke:#010101;stroke-miterlimit:10;}
	.st56{fill:none;stroke:#010101;stroke-miterlimit:10;}
	.st57{fill:none;stroke:#193966;stroke-miterlimit:10;}
	.st58{opacity:0.2;}
	.st59{opacity:0.1;}
	.st60{fill:none;stroke:#00A6CC;stroke-width:4;stroke-linecap:round;stroke-miterlimit:10;}
	.st61{fill:none;stroke:#193966;stroke-width:4;stroke-miterlimit:10;}
	.st62{fill:none;stroke:#00A6CC;stroke-width:4;stroke-miterlimit:10;}
	.st63{fill:none;stroke:#193966;stroke-width:1.803;stroke-miterlimit:10;}
	.st64{fill:none;stroke:#C4B2D7;stroke-width:2.5832;stroke-miterlimit:10;}
	.st65{fill:none;stroke:#C4B2D7;stroke-width:2.5832;stroke-linecap:round;stroke-miterlimit:10;}
	.st66{fill:none;stroke:#C4B2D7;stroke-width:2.4952;stroke-linecap:round;stroke-miterlimit:10;}
	.st67{fill:none;stroke:#193966;stroke-width:2.2599;stroke-linecap:round;stroke-miterlimit:10;}
	.st68{fill:none;stroke:#C4B2D7;stroke-width:2.5;stroke-linecap:round;stroke-miterlimit:10;}
	.st69{fill:none;stroke:#193966;stroke-width:2.4952;stroke-linecap:round;stroke-miterlimit:10;}
	.st70{fill:none;stroke:#193966;stroke-width:2.4952;stroke-miterlimit:10;}
	.st71{fill:none;stroke:#C4B2D7;stroke-width:2.4952;stroke-miterlimit:10;}
	.st72{fill:none;stroke:#B4BCC7;stroke-width:3;stroke-linecap:round;stroke-miterlimit:10;}
	.st73{fill:none;stroke:#B4BCC7;stroke-width:3;stroke-linecap:round;stroke-miterlimit:10;stroke-dasharray:0,6.0974;}
	.st74{fill:none;stroke:#B4BCC7;stroke-width:3;stroke-linecap:round;stroke-miterlimit:10;stroke-dasharray:0,5.8282;}
	.st75{fill:none;stroke:#B4BCC7;stroke-width:3;stroke-linecap:round;stroke-miterlimit:10;stroke-dasharray:0,5.0487;}
	.st76{fill:none;stroke:#193966;stroke-width:2.4952;stroke-linecap:round;stroke-miterlimit:10;stroke-dasharray:0,5;}
	.st77{fill:none;stroke:#C4B2D7;stroke-width:2.4952;stroke-linecap:round;stroke-miterlimit:10;stroke-dasharray:0,5;}
	.st78{fill:none;stroke:#B4BCC7;stroke-width:3.3528;stroke-linecap:round;stroke-miterlimit:10;}
	.st79{fill:none;stroke:#B4BCC7;stroke-width:3.3528;stroke-linecap:round;stroke-miterlimit:10;stroke-dasharray:0,5.8626;}
	.st80{fill:none;stroke:#B4BCC7;stroke-width:3.3528;stroke-linecap:round;stroke-miterlimit:10;stroke-dasharray:0,6.8157;}
	.st81{fill:none;stroke:#C4B2D7;stroke-width:3.3528;stroke-linecap:round;stroke-miterlimit:10;}
	.st82{fill:none;stroke:#193966;stroke-width:3;stroke-miterlimit:10;}
	.st83{fill:none;stroke:#B4BCC7;stroke-width:3.3528;stroke-linecap:round;stroke-miterlimit:10;stroke-dasharray:0,6.138;}
	.st84{fill:none;stroke:#B4BCC7;stroke-width:3.3528;stroke-linecap:round;stroke-miterlimit:10;stroke-dasharray:0,6.5136;}
	.st85{fill:none;stroke:#B4BCC7;stroke-width:3.3528;stroke-linecap:round;stroke-miterlimit:10;stroke-dasharray:0,7.4201;}
	.st86{fill:none;stroke:#C4B2D7;stroke-width:2.626;stroke-miterlimit:10;}
	.st87{fill:none;stroke:#C4B2D7;stroke-width:2.626;stroke-linejoin:bevel;stroke-miterlimit:10;}
	.st88{fill:none;stroke:#FFFFFF;stroke-width:2.626;stroke-linecap:round;stroke-linejoin:round;stroke-miterlimit:10;}
	.st89{fill:none;stroke:#FFFFFF;stroke-width:2.626;stroke-linejoin:bevel;stroke-miterlimit:10;}
	.st90{fill:none;stroke:#FFFFFF;stroke-width:2.626;stroke-miterlimit:10;}
	.st91{clip-path:url(#SVGID_16_);}
	.st92{opacity:0.08;clip-path:url(#SVGID_18_);}
	.st93{fill:url(#SVGID_19_);}
	.st94{fill:url(#SVGID_20_);}
	.st95{fill:url(#SVGID_21_);}
	.st96{fill:url(#SVGID_22_);}
	.st97{clip-path:url(#SVGID_24_);}
	.st98{opacity:0.75;clip-path:url(#SVGID_24_);}
	.st99{fill:none;stroke:#B4BCC7;stroke-width:2.626;stroke-miterlimit:10;}
	.st100{clip-path:url(#SVGID_26_);}
	.st101{opacity:0.05;clip-path:url(#SVGID_28_);}
	.st102{fill:url(#SVGID_29_);}
	.st103{fill:url(#SVGID_30_);}
	.st104{fill:url(#SVGID_31_);}
	.st105{opacity:0.65;}
	.st106{fill:url(#SVGID_32_);}
	.st107{fill:url(#SVGID_33_);}
	.st108{clip-path:url(#SVGID_35_);}
	.st109{opacity:0.05;clip-path:url(#SVGID_37_);}
	.st110{fill:url(#SVGID_38_);}
	.st111{fill:url(#SVGID_39_);}
	.st112{fill:url(#SVGID_40_);}
	.st113{fill:url(#SVGID_41_);}
	.st114{fill:url(#SVGID_42_);}
	.st115{clip-path:url(#SVGID_44_);}
	.st116{opacity:0.75;fill:#C4B2D7;}
	.st117{clip-path:url(#SVGID_46_);}
	.st118{clip-path:url(#SVGID_48_);}
	.st119{opacity:0.06;clip-path:url(#SVGID_50_);}
	.st120{fill:url(#SVGID_51_);}
	.st121{fill:url(#SVGID_52_);}
	.st122{fill:url(#SVGID_53_);}
	.st123{fill:url(#SVGID_54_);}
	.st124{clip-path:url(#SVGID_56_);}
	.st125{clip-path:url(#SVGID_58_);}
	.st126{opacity:0.06;clip-path:url(#SVGID_60_);}
	.st127{fill:url(#SVGID_61_);}
	.st128{fill:url(#SVGID_62_);}
	.st129{fill:url(#SVGID_63_);}
	.st130{fill:url(#SVGID_64_);}
	.st131{clip-path:url(#SVGID_66_);}
	.st132{opacity:0.75;fill:#00A6CC;}
	.st133{clip-path:url(#SVGID_66_);fill:#C4B2D7;}
	.st134{clip-path:url(#SVGID_66_);fill:#193966;}
	.st135{clip-path:url(#SVGID_68_);}
	.st136{clip-path:url(#SVGID_68_);fill:#C4B2D7;}
	.st137{clip-path:url(#SVGID_68_);fill:#193966;}
	.st138{fill:none;stroke:#193966;stroke-width:3.3528;stroke-linecap:round;stroke-linejoin:round;stroke-miterlimit:10;}
	.st139{fill:none;stroke:#C4B2D7;stroke-width:3.3528;stroke-linecap:round;stroke-linejoin:round;stroke-miterlimit:10;}
	.st140{fill:none;stroke:#193966;stroke-width:3.3528;stroke-linecap:round;stroke-miterlimit:10;}
	.st141{fill:none;stroke:#C4B2D7;stroke-width:3.3528;stroke-linecap:round;stroke-miterlimit:10;stroke-dasharray:0,5.5881;}
	.st142{fill:none;stroke:#193966;stroke-width:3.3528;stroke-linecap:round;stroke-miterlimit:10;stroke-dasharray:0,5.5881;}
	.st143{fill:none;stroke:#B4BCC7;stroke-width:3.3528;stroke-linecap:round;stroke-miterlimit:10;stroke-dasharray:0,6.9454;}
	.st144{fill:none;stroke:#B4BCC7;stroke-width:3.3528;stroke-linecap:round;stroke-miterlimit:10;stroke-dasharray:0,6.7634;}
	.st145{fill:none;stroke:#C4B2D7;stroke-width:3.3528;stroke-miterlimit:10;}
	.st146{fill:none;stroke:#FFFFFF;stroke-width:3;stroke-linecap:round;stroke-miterlimit:10;}
	.st147{fill:url(#SVGID_69_);}
	.st148{fill:url(#SVGID_70_);}
	.st149{fill:url(#SVGID_71_);}
	.st150{opacity:0.08;}
	.st151{fill:url(#SVGID_72_);}
	.st152{fill:url(#SVGID_73_);}
	.st153{fill:url(#SVGID_74_);}
	.st154{fill:url(#SVGID_75_);}
	.st155{fill:url(#SVGID_76_);}
	.st156{fill:url(#SVGID_77_);}
	.st157{fill:url(#SVGID_78_);}
	.st158{fill:url(#SVGID_79_);}
	.st159{fill:none;stroke:#B4BCC7;stroke-width:3;stroke-linecap:round;stroke-miterlimit:10;stroke-dasharray:0,6.3229;}
	.st160{fill:none;stroke:#B4BCC7;stroke-width:3;stroke-linecap:round;stroke-miterlimit:10;stroke-dasharray:0,5.7563;}
	.st161{fill:none;stroke:#B4BCC7;stroke-width:3;stroke-linecap:round;stroke-miterlimit:10;stroke-dasharray:0,5.3494;}
	.st162{fill:none;stroke:#B4BCC7;stroke-width:3;stroke-linecap:round;stroke-miterlimit:10;stroke-dasharray:0,5.5697;}
</style>
<g id="Layer_5">
</g>
<g id="Layer_1">
	<g>
		<g>
			<g>
				<g>
					<path class="st17" d="M57.838,111.354c-0.505,0-0.983-0.229-1.302-0.62L27.792,75.321c-0.407-0.502-0.49-1.193-0.212-1.777
						s0.867-0.956,1.514-0.956h10.484V23.23c0-0.926,0.751-1.677,1.677-1.677s1.677,0.751,1.677,1.677v51.034
						c0,0.926-0.751,1.677-1.677,1.677h-8.642l25.225,31.076l25.225-31.076h-8.642c-0.926,0-1.677-0.751-1.677-1.677V62.882
						c0-0.926,0.751-1.677,1.677-1.677s1.677,0.751,1.677,1.677v9.706h10.484c0.646,0,1.235,0.372,1.514,0.956
						s0.195,1.275-0.212,1.777L59.14,110.734C58.822,111.126,58.343,111.354,57.838,111.354z"/>
				</g>
				<g>
					<path class="st7" d="M47.96,59.866c-0.926,0-1.677-0.751-1.677-1.677V27.676c0-0.926,0.751-1.677,1.677-1.677
						s1.677,0.751,1.677,1.677v30.514C49.637,59.115,48.886,59.866,47.96,59.866z"/>
				</g>
				<g>
					<path class="st7" d="M34.549,48.677c-0.926,0-1.677-0.751-1.677-1.677V16.486c0-0.926,0.751-1.677,1.677-1.677
						s1.677,0.751,1.677,1.677V47C36.226,47.926,35.475,48.677,34.549,48.677z"/>
				</g>
			</g>
			<g>
				<g>
					<path class="st7" d="M74.122,58.182L74.122,58.182c-0.497,0-0.969-0.221-1.287-0.603L60.375,42.64
						c-0.417-0.5-0.507-1.195-0.231-1.785c0.276-0.589,0.868-0.966,1.519-0.966h3.749V18.062c0-0.926,0.751-1.677,1.677-1.677
						s1.677,0.751,1.677,1.677v23.503c0,0.926-0.751,1.677-1.677,1.677h-1.845l8.879,10.646l8.88-10.646h-1.846
						c-0.926,0-1.677-0.751-1.677-1.677V15.039c0-0.926,0.751-1.677,1.677-1.677s1.677,0.751,1.677,1.677v24.85h3.75
						c0.65,0,1.242,0.377,1.519,0.966c0.275,0.59,0.186,1.285-0.231,1.785L75.409,57.579C75.09,57.961,74.619,58.182,74.122,58.182z
						"/>
				</g>
				<g>
					<path class="st17" d="M74.122,37.448c-0.926,0-1.677-0.751-1.677-1.677V8.663c0-0.926,0.751-1.677,1.677-1.677
						s1.677,0.751,1.677,1.677v27.108C75.798,36.697,75.047,37.448,74.122,37.448z"/>
				</g>
			</g>
		</g>
		<g>
			<path class="st7" d="M32.875,63.766c0-0.93,0.75-1.68,1.67-1.68l0,0c0.93,0,1.68,0.75,1.68,1.68l0,0c0,0.92-0.75,1.67-1.68,1.67
				l0,0C33.625,65.436,32.875,64.686,32.875,63.766z M32.875,58.176c0-0.931,0.75-1.681,1.67-1.681l0,0c0.93,0,1.68,0.75,1.68,1.681
				l0,0c0,0.93-0.75,1.68-1.68,1.68l0,0C33.625,59.855,32.875,59.105,32.875,58.176z M32.875,52.586c0-0.931,0.75-1.67,1.67-1.67
				l0,0c0.93,0,1.68,0.739,1.68,1.67l0,0c0,0.93-0.75,1.68-1.68,1.68l0,0C33.625,54.266,32.875,53.516,32.875,52.586z"/>
		</g>
		<g>
			<path class="st7" d="M46.285,22.086c0-0.931,0.75-1.681,1.68-1.681l0,0c0.92,0,1.67,0.75,1.67,1.681l0,0
				c0,0.93-0.75,1.68-1.67,1.68l0,0C47.035,23.766,46.285,23.016,46.285,22.086z M46.285,16.495c0-0.92,0.75-1.67,1.68-1.67l0,0
				c0.92,0,1.67,0.75,1.67,1.67l0,0c0,0.931-0.75,1.681-1.67,1.681l0,0C47.035,18.176,46.285,17.426,46.285,16.495z M46.285,10.905
				c0-0.92,0.75-1.67,1.68-1.67l0,0c0.92,0,1.67,0.75,1.67,1.67l0,0c0,0.931-0.75,1.681-1.67,1.681l0,0
				C47.035,12.586,46.285,11.836,46.285,10.905z M46.285,5.325c0-0.93,0.75-1.68,1.68-1.68l0,0c0.92,0,1.67,0.75,1.67,1.68l0,0
				c0,0.92-0.75,1.67-1.67,1.67l0,0C47.035,6.995,46.285,6.245,46.285,5.325z"/>
		</g>
		<g>
			<path class="st7" d="M65.415,18.065c0-0.93,0.75-1.68,1.67-1.68l0,0c0.93,0,1.68,0.75,1.68,1.68l0,0c0,0.92-0.75,1.67-1.68,1.67
				l0,0C66.165,19.735,65.415,18.985,65.415,18.065z M65.415,12.476c0-0.93,0.75-1.68,1.67-1.68l0,0c0.93,0,1.68,0.75,1.68,1.68l0,0
				c0,0.92-0.75,1.67-1.68,1.67l0,0C66.165,14.146,65.415,13.396,65.415,12.476z M65.415,6.886c0-0.93,0.75-1.68,1.67-1.68l0,0
				c0.93,0,1.68,0.75,1.68,1.68l0,0c0,0.93-0.75,1.68-1.68,1.68l0,0C66.165,8.565,65.415,7.815,65.415,6.886z"/>
		</g>
		<g>
			<path class="st17" d="M86.144,33.985c0-0.93,0.75-1.68,1.67-1.68l0,0c0.931,0,1.681,0.75,1.681,1.68l0,0
				c0,0.931-0.75,1.681-1.681,1.681l0,0C86.894,35.666,86.144,34.916,86.144,33.985z M86.144,28.985c0-0.92,0.75-1.67,1.67-1.67l0,0
				c0.931,0,1.681,0.75,1.681,1.67l0,0c0,0.931-0.75,1.681-1.681,1.681l0,0C86.894,30.666,86.144,29.916,86.144,28.985z
				 M86.144,23.985c0-0.92,0.75-1.67,1.67-1.67l0,0c0.931,0,1.681,0.75,1.681,1.67l0,0c0,0.931-0.75,1.681-1.681,1.681l0,0
				C86.894,25.666,86.144,24.916,86.144,23.985z M86.144,18.985c0-0.93,0.75-1.68,1.67-1.68l0,0c0.931,0,1.681,0.75,1.681,1.68l0,0
				c0,0.931-0.75,1.681-1.681,1.681l0,0C86.894,20.666,86.144,19.916,86.144,18.985z"/>
		</g>
		<g>
			<g>
				<g>
					<path class="st18" d="M86.585,101.767c-0.537,0-1.064-0.258-1.389-0.735c-0.521-0.766-0.321-1.809,0.445-2.328
						c13.786-9.362,22.017-24.887,22.017-41.527c0-1.851-0.102-3.717-0.303-5.547c-0.102-0.921,0.562-1.749,1.482-1.85
						c0.92-0.1,1.749,0.562,1.85,1.482c0.215,1.951,0.324,3.941,0.324,5.914c0,17.753-8.78,34.313-23.487,44.301
						C87.237,101.673,86.91,101.767,86.585,101.767z"/>
				</g>
			</g>
			<g>
				<g>
					<g>
						<path class="st18" d="M102.674,33.416c-0.11,0-0.22-0.011-0.33-0.03c-0.1-0.021-0.21-0.061-0.31-0.101
							c-0.101-0.04-0.2-0.09-0.29-0.149c-0.09-0.061-0.181-0.13-0.25-0.21c-0.08-0.08-0.15-0.16-0.21-0.25
							c-0.061-0.101-0.12-0.19-0.16-0.29c-0.04-0.11-0.07-0.21-0.09-0.32c-0.021-0.109-0.04-0.22-0.04-0.32
							c0-0.449,0.18-0.88,0.5-1.189c0.62-0.63,1.739-0.63,2.37,0c0.31,0.31,0.489,0.74,0.489,1.189c0,0.101-0.01,0.211-0.029,0.32
							c-0.03,0.11-0.061,0.21-0.101,0.32c-0.04,0.1-0.09,0.189-0.149,0.29c-0.07,0.09-0.141,0.17-0.21,0.25
							c-0.08,0.08-0.171,0.149-0.261,0.21c-0.09,0.06-0.189,0.109-0.29,0.149c-0.1,0.04-0.199,0.08-0.31,0.101
							C102.894,33.405,102.785,33.416,102.674,33.416z"/>
					</g>
				</g>
				<g>
					<g>
						<path class="st18" d="M106.174,45.016c-0.22-0.9,0.32-1.81,1.22-2.04l0,0c0.9-0.22,1.811,0.33,2.03,1.23l0,0
							c0.22,0.89-0.32,1.8-1.22,2.029l0,0c-0.141,0.03-0.271,0.05-0.41,0.05l0,0C107.044,46.285,106.365,45.775,106.174,45.016z
							 M104.115,38.626L104.115,38.626c-0.341-0.86,0.079-1.841,0.939-2.181l0,0c0.86-0.34,1.83,0.08,2.18,0.931l0,0l0,0l0,0
							c0.341,0.859-0.079,1.84-0.939,2.18l0,0c-0.2,0.08-0.41,0.12-0.62,0.12l0,0C105.004,39.676,104.375,39.275,104.115,38.626z"/>
					</g>
				</g>
			</g>
			<g>
				<g>
					<path class="st18" d="M7.626,73.031c-0.73,0-1.402-0.481-1.611-1.219c-1.345-4.74-2.027-9.665-2.027-14.637
						c0-14.878,5.961-28.698,16.784-38.916c0.671-0.635,1.734-0.605,2.369,0.068c0.636,0.673,0.605,1.733-0.068,2.369
						C12.928,30.275,7.341,43.23,7.341,57.176c0,4.662,0.639,9.279,1.898,13.721c0.253,0.892-0.264,1.818-1.154,2.07
						C7.932,73.011,7.778,73.031,7.626,73.031z"/>
				</g>
			</g>
			<g>
				<g>
					<g>
						<path class="st18" d="M32.155,104.075c-0.11,0-0.221-0.01-0.33-0.029c-0.101-0.021-0.21-0.051-0.311-0.09
							c-0.1-0.051-0.2-0.101-0.29-0.16c-0.09-0.061-0.18-0.13-0.25-0.21c-0.08-0.07-0.149-0.16-0.21-0.25
							c-0.06-0.091-0.12-0.19-0.16-0.29c-0.04-0.101-0.069-0.21-0.09-0.32c-0.03-0.1-0.04-0.21-0.04-0.32
							c0-0.109,0.01-0.22,0.04-0.33c0.021-0.109,0.05-0.21,0.09-0.31c0.04-0.11,0.101-0.2,0.16-0.29c0.061-0.09,0.13-0.18,0.21-0.26
							c0.391-0.391,0.96-0.57,1.51-0.46c0.11,0.02,0.21,0.06,0.311,0.1c0.1,0.04,0.2,0.09,0.29,0.15c0.09,0.069,0.18,0.14,0.26,0.21
							c0.311,0.319,0.49,0.75,0.49,1.189c0,0.11-0.01,0.221-0.03,0.32c-0.03,0.11-0.06,0.22-0.1,0.32
							c-0.04,0.1-0.101,0.199-0.16,0.29c-0.061,0.09-0.13,0.18-0.2,0.25c-0.08,0.08-0.17,0.149-0.26,0.21
							c-0.09,0.06-0.19,0.109-0.29,0.16c-0.101,0.039-0.2,0.069-0.311,0.09C32.375,104.065,32.264,104.075,32.155,104.075z"/>
					</g>
				</g>
				<g>
					<g>
						<path class="st18" d="M25.484,100.056L25.484,100.056L25.484,100.056c-0.739-0.55-0.89-1.6-0.34-2.34l0,0
							c0.561-0.74,1.61-0.9,2.351-0.34l0,0c0.739,0.55,0.89,1.6,0.34,2.35l0,0c-0.33,0.43-0.84,0.67-1.351,0.67l0,0
							C26.144,100.396,25.785,100.285,25.484,100.056z M20.184,95.525L20.184,95.525L20.184,95.525c-0.67-0.649-0.68-1.71-0.04-2.37
							l0,0c0.65-0.67,1.71-0.68,2.38-0.029l0,0c0.66,0.64,0.67,1.699,0.03,2.369l0,0c-0.33,0.341-0.77,0.511-1.21,0.511l0,0
							C20.924,96.006,20.504,95.846,20.184,95.525z M15.504,90.346c-0.57-0.72-0.45-1.78,0.28-2.351l0,0
							c0.72-0.579,1.779-0.46,2.35,0.271l0,0c0.58,0.729,0.46,1.78-0.27,2.36l0,0c-0.311,0.239-0.681,0.359-1.04,0.359l0,0
							C16.325,90.985,15.834,90.766,15.504,90.346z M11.544,84.605L11.544,84.605L11.544,84.605c-0.48-0.8-0.22-1.82,0.58-2.3l0,0
							c0.79-0.47,1.819-0.21,2.3,0.58l0,0c0.47,0.79,0.21,1.82-0.58,2.3l0,0c-0.27,0.16-0.57,0.24-0.86,0.24l0,0
							C12.415,85.426,11.854,85.136,11.544,84.605z M8.365,78.396L8.365,78.396L8.365,78.396c-0.37-0.85,0.02-1.83,0.869-2.2l0,0
							c0.851-0.37,1.841,0.021,2.21,0.87l0,0c0.36,0.851-0.029,1.84-0.88,2.2l0,0c-0.22,0.1-0.439,0.14-0.67,0.14l0,0
							C9.254,79.405,8.634,79.035,8.365,78.396z"/>
					</g>
				</g>
			</g>
		</g>
	</g>
</g>
<g id="Layer_2">
</g>
<g id="Layer_3">
</g>
<g id="Layer_4">
</g>
</svg>
